<svg width="60" height="60" viewBox="0 0 60 60" fill="none" xmlns="http://www.w3.org/2000/svg">
<circle cx="30" cy="30" r="30" fill="url(#paint0_diamond_145_20)"/>
<circle cx="30" cy="30" r="30" fill="url(#paint1_linear_145_20)"/>
<path d="M41.1559 19.6748C41.2482 18.2972 40.2062 17.1056 38.8286 17.0133C37.451 16.921 36.2594 17.963 36.1671 19.3406C36.0748 20.7182 37.1168 21.9098 38.4944 22.0021C39.872 22.0944 41.0636 21.0524 41.1559 19.6748Z" fill="black"/>
<path d="M43.7529 10.8286C43.8452 9.45096 42.8032 8.25937 41.4256 8.16709C40.0479 8.07482 38.8563 9.11679 38.7641 10.4944C38.6718 11.872 39.7138 13.0636 41.0914 13.1559C42.469 13.2482 43.6606 12.2062 43.7529 10.8286Z" fill="black"/>
<defs>
<radialGradient id="paint0_diamond_145_20" cx="0" cy="0" r="1" gradientUnits="userSpaceOnUse" gradientTransform="translate(30 30) rotate(30.556) scale(48.1923 73.9184)">
<stop stop-color="white"/>
<stop offset="0.53125" stop-color="#B58BEB"/>
<stop offset="1" stop-color="#6A2395"/>
</radialGradient>
<linearGradient id="paint1_linear_145_20" x1="30" y1="0" x2="30" y2="60" gradientUnits="userSpaceOnUse">
<stop stop-color="white" stop-opacity="0"/>
<stop offset="1" stop-color="#CC31CF"/>
</linearGradient>
</defs>
</svg>
