<svg width="60" height="60" viewBox="0 0 60 60" fill="none" xmlns="http://www.w3.org/2000/svg">
<circle cx="30" cy="30" r="30" fill="url(#paint0_diamond_145_14)"/>
<circle cx="30" cy="30" r="30" fill="url(#paint1_linear_145_14)"/>
<path d="M37.5 43C38.8807 43 40 41.8807 40 40.5C40 39.1193 38.8807 38 37.5 38C36.1193 38 35 39.1193 35 40.5C35 41.8807 36.1193 43 37.5 43Z" fill="black"/>
<path d="M46.5 45C47.8807 45 49 43.8807 49 42.5C49 41.1193 47.8807 40 46.5 40C45.1193 40 44 41.1193 44 42.5C44 43.8807 45.1193 45 46.5 45Z" fill="black"/>
<circle cx="38" cy="41" r="1" fill="white"/>
<circle cx="47" cy="43" r="1" fill="white"/>
<defs>
<radialGradient id="paint0_diamond_145_14" cx="0" cy="0" r="1" gradientUnits="userSpaceOnUse" gradientTransform="translate(30 30) rotate(30.556) scale(48.1923 73.9184)">
<stop stop-color="white"/>
<stop offset="0.53125" stop-color="#98FF87"/>
<stop offset="1" stop-color="#55CF1C"/>
</radialGradient>
<linearGradient id="paint1_linear_145_14" x1="30" y1="0" x2="30" y2="60" gradientUnits="userSpaceOnUse">
<stop offset="0.526042" stop-color="white" stop-opacity="0"/>
<stop offset="1" stop-color="#82E3E9"/>
</linearGradient>
</defs>
</svg>
