<svg width="60" height="60" viewBox="0 0 60 60" fill="none" xmlns="http://www.w3.org/2000/svg">
<circle cx="30" cy="30" r="30" fill="url(#paint0_diamond_145_16)"/>
<circle cx="30" cy="30" r="30" fill="url(#paint1_linear_145_16)"/>
<path d="M40.9092 34.9012C42.2599 34.6147 43.1226 33.2875 42.836 31.9368C42.5495 30.5862 41.2223 29.7235 39.8717 30.01C38.521 30.2965 37.6584 31.6237 37.9449 32.9744C38.2314 34.325 39.5586 35.1877 40.9092 34.9012Z" fill="black"/>
<path d="M50.1284 34.99C51.479 34.7035 52.3417 33.3763 52.0552 32.0256C51.7686 30.675 50.4414 29.8123 49.0908 30.0988C47.7401 30.3853 46.8775 31.7125 47.164 33.0632C47.4505 34.4139 48.7777 35.2765 50.1284 34.99Z" fill="black"/>
<circle cx="40.9834" cy="32.841" r="1" transform="rotate(-11.9768 40.9834 32.841)" fill="white"/>
<circle cx="50.2025" cy="32.9298" r="1" transform="rotate(-11.9768 50.2025 32.9298)" fill="white"/>
<defs>
<radialGradient id="paint0_diamond_145_16" cx="0" cy="0" r="1" gradientUnits="userSpaceOnUse" gradientTransform="translate(30 30) rotate(30.556) scale(48.1923 73.9184)">
<stop stop-color="white"/>
<stop offset="0.53125" stop-color="#FFD439"/>
<stop offset="1" stop-color="#FBB835"/>
</radialGradient>
<linearGradient id="paint1_linear_145_16" x1="30" y1="0" x2="30" y2="60" gradientUnits="userSpaceOnUse">
<stop stop-color="white" stop-opacity="0"/>
<stop offset="1" stop-color="#E8844B"/>
</linearGradient>
</defs>
</svg>
