<svg width="60" height="60" viewBox="0 0 60 60" fill="none" xmlns="http://www.w3.org/2000/svg">
<circle cx="30" cy="30" r="30" fill="url(#paint0_diamond_145_21)"/>
<circle cx="30" cy="30" r="30" fill="url(#paint1_linear_145_21)"/>
<path d="M41.5499 22.8312C41.6671 21.0811 40.3434 19.5674 38.5933 19.4501C36.8432 19.3329 35.3295 20.6566 35.2123 22.4067C35.095 24.1568 36.4187 25.6705 38.1688 25.7878C39.9189 25.905 41.4326 24.5813 41.5499 22.8312Z" fill="black"/>
<path d="M44.849 11.5934C44.9662 9.84327 43.6425 8.32952 41.8925 8.2123C40.1424 8.09507 38.6286 9.41876 38.5114 11.1688C38.3942 12.9189 39.7179 14.4327 41.4679 14.5499C43.218 14.6671 44.7318 13.3434 44.849 11.5934Z" fill="black"/>
<defs>
<radialGradient id="paint0_diamond_145_21" cx="0" cy="0" r="1" gradientUnits="userSpaceOnUse" gradientTransform="translate(30 30) rotate(30.556) scale(48.1923 73.9184)">
<stop stop-color="white"/>
<stop offset="0.5" stop-color="#BC7A7A"/>
<stop offset="1" stop-color="#662424"/>
</radialGradient>
<linearGradient id="paint1_linear_145_21" x1="30" y1="0" x2="30" y2="60" gradientUnits="userSpaceOnUse">
<stop stop-color="#252525" stop-opacity="0"/>
<stop offset="1" stop-color="#E8844B"/>
</linearGradient>
</defs>
</svg>
