<svg width="140" height="104" viewBox="0 0 140 104" fill="none" xmlns="http://www.w3.org/2000/svg">
<g filter="url(#filter0_di_58_5)">
<path fill-rule="evenodd" clip-rule="evenodd" d="M77.7631 12.0417C73.9753 4.87996 66.4495 0 57.784 0C45.3097 0 35.1972 10.1124 35.1972 22.5867C35.1972 23.7586 35.2865 24.9095 35.4585 26.0333C34.1908 25.7747 32.8785 25.639 31.5345 25.639C20.7459 25.639 12 34.3849 12 45.1735C12 55.9621 20.7459 64.708 31.5345 64.708C35.4839 64.708 39.1595 63.5359 42.2326 61.5207C45.7601 65.0014 50.6054 67.1498 55.9525 67.1498C56.5089 67.1498 57.06 67.1265 57.6047 67.0809C61.0578 70.1613 65.612 72.0334 70.6035 72.0334C75.6603 72.0334 80.2683 70.112 83.7372 66.9594C84.6319 67.0849 85.5459 67.1498 86.4751 67.1498C92.075 67.1498 97.1246 64.7935 100.686 61.0182C103.9 63.3398 107.847 64.708 112.114 64.708C122.903 64.708 131.649 55.9621 131.649 45.1735C131.649 34.3849 122.903 25.639 112.114 25.639C110.824 25.639 109.563 25.7641 108.342 26.0029C107.305 16.1912 99.0037 8.54635 88.917 8.54635C84.7704 8.54635 80.9256 9.83832 77.7631 12.0417Z" fill="url(#paint0_linear_58_5)" shape-rendering="crispEdges"/>
<path fill-rule="evenodd" clip-rule="evenodd" d="M77.7631 12.0417C73.9753 4.87996 66.4495 0 57.784 0C45.3097 0 35.1972 10.1124 35.1972 22.5867C35.1972 23.7586 35.2865 24.9095 35.4585 26.0333C34.1908 25.7747 32.8785 25.639 31.5345 25.639C20.7459 25.639 12 34.3849 12 45.1735C12 55.9621 20.7459 64.708 31.5345 64.708C35.4839 64.708 39.1595 63.5359 42.2326 61.5207C45.7601 65.0014 50.6054 67.1498 55.9525 67.1498C56.5089 67.1498 57.06 67.1265 57.6047 67.0809C61.0578 70.1613 65.612 72.0334 70.6035 72.0334C75.6603 72.0334 80.2683 70.112 83.7372 66.9594C84.6319 67.0849 85.5459 67.1498 86.4751 67.1498C92.075 67.1498 97.1246 64.7935 100.686 61.0182C103.9 63.3398 107.847 64.708 112.114 64.708C122.903 64.708 131.649 55.9621 131.649 45.1735C131.649 34.3849 122.903 25.639 112.114 25.639C110.824 25.639 109.563 25.7641 108.342 26.0029C107.305 16.1912 99.0037 8.54635 88.917 8.54635C84.7704 8.54635 80.9256 9.83832 77.7631 12.0417Z" fill="url(#paint1_linear_58_5)" fill-opacity="0.2" shape-rendering="crispEdges"/>
<path fill-rule="evenodd" clip-rule="evenodd" d="M77.7631 12.0417C73.9753 4.87996 66.4495 0 57.784 0C45.3097 0 35.1972 10.1124 35.1972 22.5867C35.1972 23.7586 35.2865 24.9095 35.4585 26.0333C34.1908 25.7747 32.8785 25.639 31.5345 25.639C20.7459 25.639 12 34.3849 12 45.1735C12 55.9621 20.7459 64.708 31.5345 64.708C35.4839 64.708 39.1595 63.5359 42.2326 61.5207C45.7601 65.0014 50.6054 67.1498 55.9525 67.1498C56.5089 67.1498 57.06 67.1265 57.6047 67.0809C61.0578 70.1613 65.612 72.0334 70.6035 72.0334C75.6603 72.0334 80.2683 70.112 83.7372 66.9594C84.6319 67.0849 85.5459 67.1498 86.4751 67.1498C92.075 67.1498 97.1246 64.7935 100.686 61.0182C103.9 63.3398 107.847 64.708 112.114 64.708C122.903 64.708 131.649 55.9621 131.649 45.1735C131.649 34.3849 122.903 25.639 112.114 25.639C110.824 25.639 109.563 25.7641 108.342 26.0029C107.305 16.1912 99.0037 8.54635 88.917 8.54635C84.7704 8.54635 80.9256 9.83832 77.7631 12.0417Z" fill="url(#paint2_linear_58_5)" fill-opacity="0.2" shape-rendering="crispEdges"/>
</g>
<g clip-path="url(#clip0_58_5)">
<path d="M91.7657 40.1179L97.4054 40.9542" stroke="#111111" stroke-width="2" stroke-linecap="round" stroke-linejoin="round"/>
<path d="M91.2036 43.908L96.8433 44.7443" stroke="#111111" stroke-width="2" stroke-linecap="round" stroke-linejoin="round"/>
<path d="M103.894 41.9165L109.534 42.7528" stroke="#111111" stroke-width="2" stroke-linecap="round" stroke-linejoin="round"/>
<path d="M103.332 45.7066L108.972 46.543" stroke="#111111" stroke-width="2" stroke-linecap="round" stroke-linejoin="round"/>
</g>
<path d="M62.4705 63.005L62.8797 70.3771C63.0802 73.9884 59.2315 76.4118 56.0615 74.6701C52.8915 72.9285 52.873 68.3804 56.0286 66.613L62.4705 63.005Z" fill="url(#paint3_linear_58_5)"/>
<path d="M40.3448 70.378L40.8028 78.628C41.0272 82.6694 36.7201 85.3813 33.1726 83.4323C29.6252 81.4833 29.6044 76.3936 33.1358 74.4157L40.3448 70.378Z" fill="url(#paint4_linear_58_5)"/>
<path d="M67.9322 78.8075L68.3902 87.0574C68.6146 91.0989 64.3075 93.8108 60.76 91.8617C57.2126 89.9127 57.1918 84.823 60.7232 82.8451L67.9322 78.8075Z" fill="url(#paint5_linear_58_5)"/>
<path d="M49.5406 86.4706L49.9986 94.7206C50.223 98.762 45.9159 101.474 42.3684 99.5249C38.821 97.5758 38.8002 92.4862 42.3316 90.5083L49.5406 86.4706Z" fill="url(#paint6_linear_58_5)"/>
<g filter="url(#filter1_i_58_5)">
<path d="M97.0864 50.7114C98.1369 49.4436 100.013 49.271 101.276 50.3188C102.539 51.3667 102.717 53.2453 101.669 54.5085" fill="black"/>
</g>
<defs>
<filter id="filter0_di_58_5" x="0" y="0" width="139.649" height="92.0334" filterUnits="userSpaceOnUse" color-interpolation-filters="sRGB">
<feFlood flood-opacity="0" result="BackgroundImageFix"/>
<feColorMatrix in="SourceAlpha" type="matrix" values="0 0 0 0 0 0 0 0 0 0 0 0 0 0 0 0 0 0 127 0" result="hardAlpha"/>
<feOffset dx="-2" dy="10"/>
<feGaussianBlur stdDeviation="5"/>
<feComposite in2="hardAlpha" operator="out"/>
<feColorMatrix type="matrix" values="0 0 0 0 0.420833 0 0 0 0 0.213924 0 0 0 0 0.213924 0 0 0 0.1 0"/>
<feBlend mode="normal" in2="BackgroundImageFix" result="effect1_dropShadow_58_5"/>
<feBlend mode="normal" in="SourceGraphic" in2="effect1_dropShadow_58_5" result="shape"/>
<feColorMatrix in="SourceAlpha" type="matrix" values="0 0 0 0 0 0 0 0 0 0 0 0 0 0 0 0 0 0 127 0" result="hardAlpha"/>
<feOffset dx="5" dy="5"/>
<feGaussianBlur stdDeviation="5"/>
<feComposite in2="hardAlpha" operator="arithmetic" k2="-1" k3="1"/>
<feColorMatrix type="matrix" values="0 0 0 0 0.825 0 0 0 0 0.237188 0 0 0 0 0.237188 0 0 0 0.25 0"/>
<feBlend mode="normal" in2="shape" result="effect2_innerShadow_58_5"/>
</filter>
<filter id="filter1_i_58_5" x="97.0864" y="49.6338" width="5.26575" height="8.87465" filterUnits="userSpaceOnUse" color-interpolation-filters="sRGB">
<feFlood flood-opacity="0" result="BackgroundImageFix"/>
<feBlend mode="normal" in="SourceGraphic" in2="BackgroundImageFix" result="shape"/>
<feColorMatrix in="SourceAlpha" type="matrix" values="0 0 0 0 0 0 0 0 0 0 0 0 0 0 0 0 0 0 127 0" result="hardAlpha"/>
<feOffset dy="4"/>
<feGaussianBlur stdDeviation="2"/>
<feComposite in2="hardAlpha" operator="arithmetic" k2="-1" k3="1"/>
<feColorMatrix type="matrix" values="0 0 0 0 0.475 0 0 0 0 0.1425 0 0 0 0 0.1425 0 0 0 1 0"/>
<feBlend mode="normal" in2="shape" result="effect1_innerShadow_58_5"/>
</filter>
<linearGradient id="paint0_linear_58_5" x1="62.9598" y1="14.5599" x2="21.9621" y2="76.2481" gradientUnits="userSpaceOnUse">
<stop stop-color="#FFF5F5"/>
<stop offset="0.5" stop-color="#F79D9D" stop-opacity="0.427083"/>
<stop offset="1" stop-color="#5B4E4E" stop-opacity="0"/>
</linearGradient>
<linearGradient id="paint1_linear_58_5" x1="71.8244" y1="0" x2="46.1009" y2="63.2208" gradientUnits="userSpaceOnUse">
<stop offset="0.169345" stop-color="#31CBFC"/>
<stop offset="1" stop-color="#FFDF35" stop-opacity="0"/>
</linearGradient>
<linearGradient id="paint2_linear_58_5" x1="71.8244" y1="0" x2="44.5683" y2="60.9219" gradientUnits="userSpaceOnUse">
<stop offset="0.458333" stop-color="#A07533" stop-opacity="0"/>
<stop offset="0.88534" stop-color="#C88725"/>
<stop offset="1" stop-color="#C88725"/>
</linearGradient>
<linearGradient id="paint3_linear_58_5" x1="62.4705" y1="63.005" x2="56.0615" y2="74.6701" gradientUnits="userSpaceOnUse">
<stop stop-color="#50D0E1" stop-opacity="0.72"/>
<stop offset="1" stop-color="#9CC0F7"/>
</linearGradient>
<linearGradient id="paint4_linear_58_5" x1="40.3448" y1="70.378" x2="33.1726" y2="83.4323" gradientUnits="userSpaceOnUse">
<stop stop-color="#50D0E1" stop-opacity="0.72"/>
<stop offset="1" stop-color="#F7D29C"/>
</linearGradient>
<linearGradient id="paint5_linear_58_5" x1="67.9322" y1="78.8075" x2="60.76" y2="91.8617" gradientUnits="userSpaceOnUse">
<stop stop-color="#79DEEC" stop-opacity="0.72"/>
<stop offset="1" stop-color="#6392DA"/>
</linearGradient>
<linearGradient id="paint6_linear_58_5" x1="49.5406" y1="86.4706" x2="42.3684" y2="99.5249" gradientUnits="userSpaceOnUse">
<stop stop-color="#CDE150" stop-opacity="0.72"/>
<stop offset="0.447917" stop-color="#9CC0F7"/>
</linearGradient>
<clipPath id="clip0_58_5">
<rect width="19.495" height="11.602" fill="white" transform="translate(91.1201 39.2474) rotate(8.43538)"/>
</clipPath>
</defs>
</svg>
