<svg width="163" height="93" viewBox="0 0 163 93" fill="none" xmlns="http://www.w3.org/2000/svg">
<g filter="url(#filter0_di_58_6)">
<path fill-rule="evenodd" clip-rule="evenodd" d="M42.344 17.0211C40.1355 12.8453 35.7475 10 30.6949 10C23.4216 10 17.5254 15.8962 17.5254 23.1695C17.5254 23.8527 17.5774 24.5238 17.6778 25.179C16.9386 25.0283 16.1735 24.9492 15.3898 24.9492C9.0994 24.9492 4 30.0486 4 36.339C4 42.6294 9.0994 47.7288 15.3898 47.7288C17.6926 47.7288 19.8357 47.0455 21.6275 45.8705C23.6843 47.8999 26.5094 49.1525 29.6271 49.1525C29.9515 49.1525 30.2728 49.139 30.5904 49.1124C32.6038 50.9084 35.2592 52 38.1695 52C41.1179 52 43.8047 50.8797 45.8273 49.0416C46.3489 49.1147 46.8819 49.1525 47.4237 49.1525C50.6888 49.1525 53.633 47.7787 55.7097 45.5775C57.5832 46.9311 59.8849 47.7288 62.3729 47.7288C68.6633 47.7288 73.7627 42.6294 73.7627 36.339C73.7627 30.0486 68.6633 24.9492 62.3729 24.9492C61.6205 24.9492 60.8852 25.0221 60.1736 25.1613C59.5687 19.4405 54.7286 14.983 48.8475 14.983C46.4297 14.983 44.188 15.7364 42.344 17.0211Z" fill="url(#paint0_linear_58_6)" shape-rendering="crispEdges"/>
<path fill-rule="evenodd" clip-rule="evenodd" d="M42.344 17.0211C40.1355 12.8453 35.7475 10 30.6949 10C23.4216 10 17.5254 15.8962 17.5254 23.1695C17.5254 23.8527 17.5774 24.5238 17.6778 25.179C16.9386 25.0283 16.1735 24.9492 15.3898 24.9492C9.0994 24.9492 4 30.0486 4 36.339C4 42.6294 9.0994 47.7288 15.3898 47.7288C17.6926 47.7288 19.8357 47.0455 21.6275 45.8705C23.6843 47.8999 26.5094 49.1525 29.6271 49.1525C29.9515 49.1525 30.2728 49.139 30.5904 49.1124C32.6038 50.9084 35.2592 52 38.1695 52C41.1179 52 43.8047 50.8797 45.8273 49.0416C46.3489 49.1147 46.8819 49.1525 47.4237 49.1525C50.6888 49.1525 53.633 47.7787 55.7097 45.5775C57.5832 46.9311 59.8849 47.7288 62.3729 47.7288C68.6633 47.7288 73.7627 42.6294 73.7627 36.339C73.7627 30.0486 68.6633 24.9492 62.3729 24.9492C61.6205 24.9492 60.8852 25.0221 60.1736 25.1613C59.5687 19.4405 54.7286 14.983 48.8475 14.983C46.4297 14.983 44.188 15.7364 42.344 17.0211Z" fill="url(#paint1_linear_58_6)" fill-opacity="0.2" shape-rendering="crispEdges"/>
</g>
<g filter="url(#filter1_di_58_6)">
<mask id="path-2-outside-1_58_6" maskUnits="userSpaceOnUse" x="27" y="6" width="120" height="73" fill="black">
<rect fill="white" x="27" y="6" width="120" height="73"/>
<path fill-rule="evenodd" clip-rule="evenodd" d="M92.8196 18.8689C89.0862 11.8099 81.6683 7 73.1271 7C60.8317 7 50.8644 16.9674 50.8644 29.2627C50.8644 30.4177 50.9523 31.5522 51.1219 32.6598C49.8725 32.405 48.579 32.2712 47.2542 32.2712C36.6204 32.2712 28 40.8916 28 51.5254C28 62.1593 36.6204 70.7797 47.2542 70.7797C51.147 70.7797 54.77 69.6245 57.799 67.6381C61.2758 71.0689 66.0516 73.1864 71.322 73.1864C71.8705 73.1864 72.4136 73.1635 72.9504 73.1186C76.354 76.1547 80.8429 78 85.7628 78C90.747 78 95.2888 76.1062 98.7081 72.9988C99.5898 73.1225 100.491 73.1864 101.407 73.1864C106.926 73.1864 111.903 70.8639 115.414 67.1429C118.581 69.4312 122.472 70.7797 126.678 70.7797C137.312 70.7797 145.932 62.1593 145.932 51.5254C145.932 40.8916 137.312 32.2712 126.678 32.2712C125.406 32.2712 124.163 32.3945 122.96 32.6298C121.938 22.9589 113.755 15.4237 103.813 15.4237C99.7264 15.4237 95.9367 16.6972 92.8196 18.8689Z"/>
</mask>
<path fill-rule="evenodd" clip-rule="evenodd" d="M92.8196 18.8689C89.0862 11.8099 81.6683 7 73.1271 7C60.8317 7 50.8644 16.9674 50.8644 29.2627C50.8644 30.4177 50.9523 31.5522 51.1219 32.6598C49.8725 32.405 48.579 32.2712 47.2542 32.2712C36.6204 32.2712 28 40.8916 28 51.5254C28 62.1593 36.6204 70.7797 47.2542 70.7797C51.147 70.7797 54.77 69.6245 57.799 67.6381C61.2758 71.0689 66.0516 73.1864 71.322 73.1864C71.8705 73.1864 72.4136 73.1635 72.9504 73.1186C76.354 76.1547 80.8429 78 85.7628 78C90.747 78 95.2888 76.1062 98.7081 72.9988C99.5898 73.1225 100.491 73.1864 101.407 73.1864C106.926 73.1864 111.903 70.8639 115.414 67.1429C118.581 69.4312 122.472 70.7797 126.678 70.7797C137.312 70.7797 145.932 62.1593 145.932 51.5254C145.932 40.8916 137.312 32.2712 126.678 32.2712C125.406 32.2712 124.163 32.3945 122.96 32.6298C121.938 22.9589 113.755 15.4237 103.813 15.4237C99.7264 15.4237 95.9367 16.6972 92.8196 18.8689Z" fill="url(#paint2_linear_58_6)" shape-rendering="crispEdges"/>
<path fill-rule="evenodd" clip-rule="evenodd" d="M92.8196 18.8689C89.0862 11.8099 81.6683 7 73.1271 7C60.8317 7 50.8644 16.9674 50.8644 29.2627C50.8644 30.4177 50.9523 31.5522 51.1219 32.6598C49.8725 32.405 48.579 32.2712 47.2542 32.2712C36.6204 32.2712 28 40.8916 28 51.5254C28 62.1593 36.6204 70.7797 47.2542 70.7797C51.147 70.7797 54.77 69.6245 57.799 67.6381C61.2758 71.0689 66.0516 73.1864 71.322 73.1864C71.8705 73.1864 72.4136 73.1635 72.9504 73.1186C76.354 76.1547 80.8429 78 85.7628 78C90.747 78 95.2888 76.1062 98.7081 72.9988C99.5898 73.1225 100.491 73.1864 101.407 73.1864C106.926 73.1864 111.903 70.8639 115.414 67.1429C118.581 69.4312 122.472 70.7797 126.678 70.7797C137.312 70.7797 145.932 62.1593 145.932 51.5254C145.932 40.8916 137.312 32.2712 126.678 32.2712C125.406 32.2712 124.163 32.3945 122.96 32.6298C121.938 22.9589 113.755 15.4237 103.813 15.4237C99.7264 15.4237 95.9367 16.6972 92.8196 18.8689Z" fill="url(#paint3_linear_58_6)" fill-opacity="0.2" shape-rendering="crispEdges"/>
<path d="M92.8196 18.8689L91.9357 19.3364L92.464 20.3354L93.3913 19.6894L92.8196 18.8689ZM51.1219 32.6598L50.9221 33.6396L52.3275 33.9262L52.1104 32.5085L51.1219 32.6598ZM57.799 67.6381L58.5013 66.9263L57.9262 66.3588L57.2506 66.8019L57.799 67.6381ZM72.9504 73.1186L73.6161 72.3723L73.2953 72.0862L72.867 72.122L72.9504 73.1186ZM98.7081 72.9988L98.8469 72.0085L98.3825 71.9434L98.0355 72.2588L98.7081 72.9988ZM115.414 67.1429L116 66.3323L115.289 65.8186L114.687 66.4566L115.414 67.1429ZM122.96 32.6298L121.966 32.735L122.08 33.8209L123.152 33.6112L122.96 32.6298ZM73.1271 8C81.2833 8 88.3685 12.592 91.9357 19.3364L93.7036 18.4014C89.8038 11.0279 82.0534 6 73.1271 6V8ZM51.8644 29.2627C51.8644 17.5196 61.384 8 73.1271 8V6C60.2795 6 49.8644 16.4151 49.8644 29.2627H51.8644ZM52.1104 32.5085C51.9485 31.4508 51.8644 30.3669 51.8644 29.2627H49.8644C49.8644 30.4686 49.9562 31.6536 50.1334 32.8111L52.1104 32.5085ZM47.2542 33.2712C48.5115 33.2712 49.738 33.3982 50.9221 33.6396L51.3217 31.68C50.0069 31.4118 48.6465 31.2712 47.2542 31.2712V33.2712ZM29 51.5254C29 41.4439 37.1727 33.2712 47.2542 33.2712V31.2712C36.0681 31.2712 27 40.3393 27 51.5254H29ZM47.2542 69.7797C37.1727 69.7797 29 61.607 29 51.5254H27C27 62.7115 36.0681 71.7797 47.2542 71.7797V69.7797ZM57.2506 66.8019C54.3795 68.6846 50.9463 69.7797 47.2542 69.7797V71.7797C51.3477 71.7797 55.1604 70.5643 58.3473 68.4744L57.2506 66.8019ZM71.322 72.1864C66.325 72.1864 61.7986 70.1799 58.5013 66.9263L57.0966 68.3499C60.753 71.9578 65.7782 74.1864 71.322 74.1864V72.1864ZM72.867 72.122C72.3579 72.1647 71.8426 72.1864 71.322 72.1864V74.1864C71.8984 74.1864 72.4693 74.1624 73.0339 74.1151L72.867 72.122ZM85.7628 77C81.0978 77 76.8436 75.2514 73.6161 72.3723L72.2848 73.8648C75.8644 77.0581 80.588 79 85.7628 79V77ZM98.0355 72.2588C94.7931 75.2054 90.4887 77 85.7628 77V79C91.0052 79 95.7845 77.0069 99.3806 73.7389L98.0355 72.2588ZM101.407 72.1864C100.537 72.1864 99.6829 72.1258 98.8469 72.0085L98.5692 73.9891C99.4968 74.1192 100.444 74.1864 101.407 74.1864V72.1864ZM114.687 66.4566C111.357 69.9858 106.64 72.1864 101.407 72.1864V74.1864C107.213 74.1864 112.45 71.7421 116.141 67.8291L114.687 66.4566ZM126.678 69.7797C122.689 69.7797 119.002 68.5016 116 66.3323L114.828 67.9535C118.16 70.3608 122.255 71.7797 126.678 71.7797V69.7797ZM144.932 51.5254C144.932 61.607 136.759 69.7797 126.678 69.7797V71.7797C137.864 71.7797 146.932 62.7115 146.932 51.5254H144.932ZM126.678 33.2712C136.759 33.2712 144.932 41.4439 144.932 51.5254H146.932C146.932 40.3393 137.864 31.2712 126.678 31.2712V33.2712ZM123.152 33.6112C124.292 33.3882 125.471 33.2712 126.678 33.2712V31.2712C125.341 31.2712 124.034 31.4008 122.768 31.6485L123.152 33.6112ZM103.813 16.4237C113.238 16.4237 120.996 23.5674 121.966 32.735L123.955 32.5247C122.879 22.3505 114.272 14.4237 103.813 14.4237V16.4237ZM93.3913 19.6894C96.3461 17.6307 99.9373 16.4237 103.813 16.4237V14.4237C99.5155 14.4237 95.5274 15.7636 92.248 18.0484L93.3913 19.6894Z" fill="url(#paint4_linear_58_6)" mask="url(#path-2-outside-1_58_6)"/>
</g>
<path d="M104 49C105.657 49 107 47.6569 107 46C107 44.3431 105.657 43 104 43C102.343 43 101 44.3431 101 46C101 47.6569 102.343 49 104 49Z" fill="black"/>
<path d="M116.5 52C117.881 52 119 50.6569 119 49C119 47.3431 117.881 46 116.5 46C115.119 46 114 47.3431 114 49C114 50.6569 115.119 52 116.5 52Z" fill="black"/>
<g filter="url(#filter2_i_58_6)">
<path d="M111 56.148C110.72 58.0165 109.158 59.2683 107.515 58.9508C105.873 58.6333 104.763 56.8624 105.043 55" fill="black"/>
</g>
<circle cx="104" cy="47" r="1" fill="white"/>
<circle cx="117" cy="50" r="1" fill="white"/>
<defs>
<filter id="filter0_di_58_6" x="0" y="4" width="89.7627" height="62" filterUnits="userSpaceOnUse" color-interpolation-filters="sRGB">
<feFlood flood-opacity="0" result="BackgroundImageFix"/>
<feColorMatrix in="SourceAlpha" type="matrix" values="0 0 0 0 0 0 0 0 0 0 0 0 0 0 0 0 0 0 127 0" result="hardAlpha"/>
<feOffset dx="6" dy="4"/>
<feGaussianBlur stdDeviation="5"/>
<feComposite in2="hardAlpha" operator="out"/>
<feColorMatrix type="matrix" values="0 0 0 0 0.841667 0 0 0 0 0.469931 0 0 0 0 0.469931 0 0 0 0.25 0"/>
<feBlend mode="normal" in2="BackgroundImageFix" result="effect1_dropShadow_58_6"/>
<feBlend mode="normal" in="SourceGraphic" in2="effect1_dropShadow_58_6" result="shape"/>
<feColorMatrix in="SourceAlpha" type="matrix" values="0 0 0 0 0 0 0 0 0 0 0 0 0 0 0 0 0 0 127 0" result="hardAlpha"/>
<feOffset dx="5" dy="5"/>
<feGaussianBlur stdDeviation="5"/>
<feComposite in2="hardAlpha" operator="arithmetic" k2="-1" k3="1"/>
<feColorMatrix type="matrix" values="0 0 0 0 0.825 0 0 0 0 0.237188 0 0 0 0 0.237188 0 0 0 0.25 0"/>
<feBlend mode="normal" in2="shape" result="effect2_innerShadow_58_6"/>
</filter>
<filter id="filter1_di_58_6" x="23" y="0" width="139.932" height="93" filterUnits="userSpaceOnUse" color-interpolation-filters="sRGB">
<feFlood flood-opacity="0" result="BackgroundImageFix"/>
<feColorMatrix in="SourceAlpha" type="matrix" values="0 0 0 0 0 0 0 0 0 0 0 0 0 0 0 0 0 0 127 0" result="hardAlpha"/>
<feOffset dx="6" dy="4"/>
<feGaussianBlur stdDeviation="5"/>
<feComposite in2="hardAlpha" operator="out"/>
<feColorMatrix type="matrix" values="0 0 0 0 0.841667 0 0 0 0 0.469931 0 0 0 0 0.469931 0 0 0 0.25 0"/>
<feBlend mode="normal" in2="BackgroundImageFix" result="effect1_dropShadow_58_6"/>
<feBlend mode="normal" in="SourceGraphic" in2="effect1_dropShadow_58_6" result="shape"/>
<feColorMatrix in="SourceAlpha" type="matrix" values="0 0 0 0 0 0 0 0 0 0 0 0 0 0 0 0 0 0 127 0" result="hardAlpha"/>
<feOffset dx="5" dy="5"/>
<feGaussianBlur stdDeviation="5"/>
<feComposite in2="hardAlpha" operator="arithmetic" k2="-1" k3="1"/>
<feColorMatrix type="matrix" values="0 0 0 0 0.825 0 0 0 0 0.237188 0 0 0 0 0.237188 0 0 0 0.25 0"/>
<feBlend mode="normal" in2="shape" result="effect2_innerShadow_58_6"/>
</filter>
<filter id="filter2_i_58_6" x="105" y="55" width="6" height="8" filterUnits="userSpaceOnUse" color-interpolation-filters="sRGB">
<feFlood flood-opacity="0" result="BackgroundImageFix"/>
<feBlend mode="normal" in="SourceGraphic" in2="BackgroundImageFix" result="shape"/>
<feColorMatrix in="SourceAlpha" type="matrix" values="0 0 0 0 0 0 0 0 0 0 0 0 0 0 0 0 0 0 127 0" result="hardAlpha"/>
<feOffset dy="4"/>
<feGaussianBlur stdDeviation="2"/>
<feComposite in2="hardAlpha" operator="arithmetic" k2="-1" k3="1"/>
<feColorMatrix type="matrix" values="0 0 0 0 0.475 0 0 0 0 0.1425 0 0 0 0 0.1425 0 0 0 1 0"/>
<feBlend mode="normal" in2="shape" result="effect1_innerShadow_58_6"/>
</filter>
<linearGradient id="paint0_linear_58_6" x1="38.8814" y1="10" x2="18.1972" y2="50.8169" gradientUnits="userSpaceOnUse">
<stop stop-color="#FFF5F5"/>
<stop offset="0.9999" stop-color="#F79D9D" stop-opacity="0.427083"/>
<stop offset="1" stop-color="#F15B5B" stop-opacity="0"/>
</linearGradient>
<linearGradient id="paint1_linear_58_6" x1="38.8814" y1="10" x2="26.4789" y2="43.1268" gradientUnits="userSpaceOnUse">
<stop stop-color="#FCDB31"/>
<stop offset="0.958001" stop-color="#FFDF35" stop-opacity="0"/>
</linearGradient>
<linearGradient id="paint2_linear_58_6" x1="86.9661" y1="7" x2="52" y2="76" gradientUnits="userSpaceOnUse">
<stop stop-color="#FFF5F5"/>
<stop offset="0.9999" stop-color="#F79D9D" stop-opacity="0.427083"/>
<stop offset="1" stop-color="#F15B5B" stop-opacity="0"/>
</linearGradient>
<linearGradient id="paint3_linear_58_6" x1="86.9661" y1="7" x2="66" y2="63" gradientUnits="userSpaceOnUse">
<stop stop-color="#FCDB31"/>
<stop offset="0.958001" stop-color="#FFDF35" stop-opacity="0"/>
</linearGradient>
<linearGradient id="paint4_linear_58_6" x1="86.9661" y1="7" x2="86.9661" y2="78" gradientUnits="userSpaceOnUse">
<stop offset="0.661458" stop-color="#2E0C0C" stop-opacity="0"/>
<stop offset="1" stop-color="#572F2F" stop-opacity="0.53"/>
</linearGradient>
</defs>
</svg>
