<svg width="57" height="58" viewBox="0 0 57 58" fill="none" xmlns="http://www.w3.org/2000/svg">
<path d="M7.896 5.5H11.872V6.242H7.896V5.5ZM6.006 14.054H13.37V14.894H6.006V14.054ZM11.704 5.5H11.9L12.054 5.458L12.628 5.752C11.368 8.314 8.512 9.812 5.67 10.512C5.572 10.302 5.362 9.966 5.194 9.77C7.882 9.182 10.64 7.796 11.704 5.64V5.5ZM7.84 6.256C8.862 7.922 11.06 9.196 13.524 9.7C13.328 9.868 13.076 10.218 12.964 10.456C10.43 9.868 8.246 8.426 7.084 6.536L7.84 6.256ZM9.282 10.106H10.206V17.106H9.282V10.106ZM8.4 4.268L9.352 4.45C8.61 5.71 7.504 7.082 5.95 8.188C5.81 7.978 5.516 7.684 5.306 7.544C6.762 6.606 7.826 5.318 8.4 4.268ZM1.106 4.856H4.592V5.71H1.96V17.078H1.106V4.856ZM4.396 4.856H4.564L4.704 4.814L5.32 5.192C4.858 6.34 4.284 7.698 3.752 8.804C4.914 9.994 5.194 11.002 5.194 11.898C5.194 12.626 5.026 13.214 4.62 13.494C4.424 13.634 4.158 13.718 3.864 13.746C3.556 13.788 3.192 13.788 2.842 13.76C2.828 13.536 2.73 13.172 2.59 12.92C2.954 12.976 3.276 12.976 3.528 12.948C3.71 12.948 3.878 12.906 4.018 12.808C4.256 12.654 4.34 12.262 4.34 11.814C4.326 11.03 4.032 10.05 2.87 8.916C3.472 7.656 4.046 6.074 4.396 5.094V4.856ZM6.496 11.73L7.35 11.842C7.084 12.85 6.734 14.11 6.468 14.894H5.6C5.894 14.054 6.258 12.738 6.496 11.73ZM5.866 11.226H12.992V12.066H5.866V11.226ZM20.524 5.668H21.462V16.938H20.524V5.668ZM15.428 8.02H26.082V8.916H16.324V17.078H15.428V8.02ZM25.69 8.02H26.6V15.846C26.6 16.406 26.46 16.7 26.04 16.854C25.606 16.994 24.808 17.008 23.66 17.008C23.618 16.756 23.478 16.378 23.338 16.126C24.276 16.154 25.116 16.154 25.368 16.14C25.62 16.126 25.69 16.056 25.69 15.846V8.02ZM14.742 5.164H27.244V6.088H14.742V5.164ZM16.646 15.006C17.416 14.53 18.592 13.718 19.726 12.92L20.034 13.592C19.054 14.362 18.004 15.16 17.136 15.79L16.646 15.006ZM16.898 10.246L17.458 9.714C18.312 10.288 19.446 11.1 20.02 11.604L19.446 12.234C18.886 11.702 17.78 10.848 16.898 10.246ZM24.724 9.728L25.27 10.386C24.444 11.058 23.24 11.8 22.372 12.248L21.938 11.674C22.778 11.198 24.01 10.344 24.724 9.728ZM21.91 13.438L22.47 12.948C23.408 13.536 24.612 14.404 25.228 14.95L24.64 15.524C24.038 14.964 22.848 14.054 21.91 13.438ZM28.7 6.984H32.2V7.866H28.7V6.984ZM30.226 4.268H31.052V17.078H30.226V4.268ZM30.212 7.488L30.716 7.698C30.394 9.896 29.652 12.668 28.84 14.068C28.756 13.788 28.546 13.368 28.392 13.144C29.148 11.898 29.89 9.462 30.212 7.488ZM30.954 8.706C31.206 9.056 32.102 10.624 32.312 11.002L31.836 11.702C31.598 11.086 30.842 9.588 30.562 9.098L30.954 8.706ZM32.494 11.506H41.062V12.276H32.494V11.506ZM33.726 13.27L34.3 12.766C35.014 13.312 35.924 14.096 36.386 14.572L35.798 15.146C35.336 14.642 34.44 13.83 33.726 13.27ZM38.29 10.554L38.78 10.092C39.284 10.386 39.942 10.806 40.264 11.114L39.774 11.632C39.438 11.324 38.794 10.876 38.29 10.554ZM39.606 12.472L40.418 12.78C39.48 14.656 37.688 16.126 35.49 17.022C35.378 16.854 35.14 16.574 34.972 16.42C37.114 15.594 38.794 14.194 39.606 12.472ZM36.05 4.366H36.862C37.016 11.072 37.926 15.972 40.222 16.168C40.516 16.196 40.698 15.664 40.824 14.628C40.978 14.81 41.3 15.02 41.468 15.104C41.216 16.616 40.796 17.12 40.25 17.092C37.128 16.896 36.288 11.562 36.05 4.366ZM34.804 8.552L35.42 8.384C35.728 9.056 36.05 9.952 36.162 10.47L35.532 10.708C35.406 10.148 35.112 9.238 34.804 8.552ZM32.648 8.202C32.606 8.034 32.508 7.67 32.424 7.474C32.578 7.446 32.76 7.25 32.956 6.97C33.152 6.69 33.824 5.584 34.188 4.506L34.902 4.758C34.398 5.878 33.74 7.026 33.124 7.768V7.782C33.124 7.782 32.648 8.02 32.648 8.202ZM32.648 8.202L32.634 7.628L33.026 7.376L35.028 7.166C34.93 7.362 34.818 7.656 34.776 7.81C33.124 8.034 32.816 8.104 32.648 8.202ZM32.774 10.568C32.746 10.414 32.634 10.022 32.55 9.84C32.746 9.798 32.998 9.56 33.25 9.21C33.544 8.874 34.538 7.544 35.14 6.256L35.84 6.522C35.056 7.894 34.118 9.238 33.236 10.134V10.148C33.236 10.148 32.774 10.386 32.774 10.568ZM32.774 10.568L32.76 9.966L33.138 9.728L35.518 9.434C35.546 9.63 35.63 9.91 35.686 10.05C33.32 10.386 32.97 10.456 32.774 10.568ZM39.816 8.286L40.404 8.118C40.74 8.776 41.076 9.686 41.202 10.204L40.586 10.456C40.446 9.896 40.124 8.972 39.816 8.286ZM37.646 7.908C37.604 7.74 37.492 7.376 37.408 7.18C37.562 7.152 37.716 6.984 37.884 6.718C38.052 6.466 38.64 5.444 38.948 4.478L39.648 4.716C39.214 5.766 38.626 6.788 38.108 7.474V7.488C38.108 7.488 37.646 7.726 37.646 7.908ZM37.646 7.908L37.632 7.32L38.01 7.082L39.914 6.886C39.83 7.082 39.718 7.376 39.662 7.53C38.108 7.74 37.8 7.81 37.646 7.908ZM37.786 10.288C37.744 10.134 37.632 9.728 37.548 9.518C37.744 9.476 37.982 9.252 38.234 8.902C38.514 8.552 39.452 7.208 40.012 5.92L40.754 6.214C40.012 7.586 39.116 8.93 38.262 9.84V9.854C38.262 9.854 37.786 10.12 37.786 10.288ZM37.786 10.288L37.772 9.7L38.15 9.448L40.516 9.154C40.558 9.336 40.628 9.602 40.67 9.756C38.332 10.12 37.982 10.176 37.786 10.288ZM33.6 11.814H34.412V12.584C34.412 13.956 33.964 15.804 32.2 17.12C32.088 16.938 31.766 16.658 31.584 16.532C33.236 15.342 33.6 13.746 33.6 12.556V11.814ZM48.496 11.996H49.49V17.106H48.496V11.996ZM42.728 13.186H55.272V14.068H42.728V13.186ZM42.994 5.556H55.16V6.424H42.994V5.556ZM53.634 6.998L54.418 7.488C53.774 8.132 52.948 8.818 52.29 9.266L51.604 8.804C52.248 8.342 53.13 7.558 53.634 6.998ZM49.714 9.798L50.414 9.49C51.058 10.204 51.772 11.184 52.08 11.842L51.324 12.192C51.044 11.534 50.358 10.526 49.714 9.798ZM42.812 11.324C43.68 10.96 45.01 10.33 46.284 9.714L46.466 10.414C45.388 11.016 44.226 11.632 43.302 12.094L42.812 11.324ZM43.232 7.558L43.862 7.04C44.632 7.488 45.556 8.16 46.032 8.636L45.36 9.224C44.912 8.748 43.988 8.034 43.232 7.558ZM51.492 10.26L52.164 9.742C53.116 10.302 54.348 11.128 54.964 11.688L54.264 12.262C53.676 11.702 52.472 10.848 51.492 10.26ZM46.704 9.182C46.662 9 46.536 8.594 46.438 8.37C46.634 8.342 46.844 8.174 47.054 7.922C47.292 7.684 48.09 6.718 48.566 5.78L49.392 6.116C48.776 7.11 47.992 8.076 47.278 8.72V8.748C47.278 8.748 46.704 9 46.704 9.182ZM46.704 9.182V8.524L47.194 8.244L49.952 8.076C49.868 8.3 49.798 8.65 49.77 8.832C47.32 9.028 46.928 9.084 46.704 9.182ZM46.438 11.982C46.382 11.8 46.256 11.394 46.158 11.142C46.466 11.114 46.83 10.834 47.292 10.442C47.81 10.022 49.476 8.482 50.652 6.914L51.422 7.362C50.05 8.972 48.51 10.47 47.026 11.52V11.548C47.026 11.548 46.438 11.8 46.438 11.982ZM46.438 11.982L46.41 11.324L46.914 11.03L51.226 10.666C51.198 10.89 51.198 11.226 51.226 11.394C47.208 11.786 46.718 11.856 46.438 11.982ZM48.146 4.408L49.042 4.17C49.406 4.632 49.784 5.276 49.966 5.696L49.028 5.99C48.86 5.57 48.468 4.898 48.146 4.408Z" fill="#795F5F"/>
<circle cx="12" cy="46" r="12" fill="url(#paint0_linear_86_7)"/>
<circle cx="34.5" cy="41.5" r="7.5" fill="url(#paint1_linear_86_7)"/>
<circle cx="49.5" cy="50.5" r="7.5" fill="url(#paint2_linear_86_7)"/>
<defs>
<linearGradient id="paint0_linear_86_7" x1="12" y1="34" x2="16.5" y2="50.5" gradientUnits="userSpaceOnUse">
<stop stop-color="#C2DCE7"/>
<stop offset="0.891332" stop-color="#39BCE6"/>
</linearGradient>
<linearGradient id="paint1_linear_86_7" x1="34.5" y1="34" x2="37.3125" y2="44.3125" gradientUnits="userSpaceOnUse">
<stop stop-color="#C2DCE7"/>
<stop offset="0.891332" stop-color="#39BCE6"/>
</linearGradient>
<linearGradient id="paint2_linear_86_7" x1="49.5" y1="43" x2="52.3125" y2="53.3125" gradientUnits="userSpaceOnUse">
<stop stop-color="#C2DCE7"/>
<stop offset="0.891332" stop-color="#39BCE6"/>
</linearGradient>
</defs>
</svg>
