<svg width="142" height="122" viewBox="0 0 142 122" fill="none" xmlns="http://www.w3.org/2000/svg">
<g filter="url(#filter0_di_58_4)">
<path fill-rule="evenodd" clip-rule="evenodd" d="M71.7631 18.0417C67.9753 10.88 60.4495 6 51.784 6C39.3097 6 29.1972 16.1124 29.1972 28.5867C29.1972 29.7586 29.2865 30.9095 29.4585 32.0333C28.1908 31.7747 26.8785 31.639 25.5345 31.639C14.7459 31.639 6 40.3849 6 51.1735C6 61.9621 14.7459 70.708 25.5345 70.708C29.4839 70.708 33.1595 69.5359 36.2326 67.5207C39.7601 71.0014 44.6054 73.1498 49.9525 73.1498C50.5089 73.1498 51.06 73.1265 51.6047 73.0809C55.0578 76.1613 59.612 78.0334 64.6035 78.0334C69.6603 78.0334 74.2683 76.112 77.7372 72.9594C78.6319 73.0849 79.5459 73.1498 80.4751 73.1498C86.075 73.1498 91.1246 70.7935 94.6864 67.0182C97.8996 69.3398 101.847 70.708 106.114 70.708C116.903 70.708 125.649 61.9621 125.649 51.1735C125.649 40.3849 116.903 31.639 106.114 31.639C104.824 31.639 103.563 31.7641 102.342 32.0029C101.305 22.1912 93.0037 14.5463 82.917 14.5463C78.7704 14.5463 74.9256 15.8383 71.7631 18.0417Z" fill="url(#paint0_linear_58_4)" fill-opacity="0.5" shape-rendering="crispEdges"/>
<path fill-rule="evenodd" clip-rule="evenodd" d="M71.7631 18.0417C67.9753 10.88 60.4495 6 51.784 6C39.3097 6 29.1972 16.1124 29.1972 28.5867C29.1972 29.7586 29.2865 30.9095 29.4585 32.0333C28.1908 31.7747 26.8785 31.639 25.5345 31.639C14.7459 31.639 6 40.3849 6 51.1735C6 61.9621 14.7459 70.708 25.5345 70.708C29.4839 70.708 33.1595 69.5359 36.2326 67.5207C39.7601 71.0014 44.6054 73.1498 49.9525 73.1498C50.5089 73.1498 51.06 73.1265 51.6047 73.0809C55.0578 76.1613 59.612 78.0334 64.6035 78.0334C69.6603 78.0334 74.2683 76.112 77.7372 72.9594C78.6319 73.0849 79.5459 73.1498 80.4751 73.1498C86.075 73.1498 91.1246 70.7935 94.6864 67.0182C97.8996 69.3398 101.847 70.708 106.114 70.708C116.903 70.708 125.649 61.9621 125.649 51.1735C125.649 40.3849 116.903 31.639 106.114 31.639C104.824 31.639 103.563 31.7641 102.342 32.0029C101.305 22.1912 93.0037 14.5463 82.917 14.5463C78.7704 14.5463 74.9256 15.8383 71.7631 18.0417Z" fill="url(#paint1_linear_58_4)" fill-opacity="0.1" shape-rendering="crispEdges"/>
<path fill-rule="evenodd" clip-rule="evenodd" d="M71.7631 18.0417C67.9753 10.88 60.4495 6 51.784 6C39.3097 6 29.1972 16.1124 29.1972 28.5867C29.1972 29.7586 29.2865 30.9095 29.4585 32.0333C28.1908 31.7747 26.8785 31.639 25.5345 31.639C14.7459 31.639 6 40.3849 6 51.1735C6 61.9621 14.7459 70.708 25.5345 70.708C29.4839 70.708 33.1595 69.5359 36.2326 67.5207C39.7601 71.0014 44.6054 73.1498 49.9525 73.1498C50.5089 73.1498 51.06 73.1265 51.6047 73.0809C55.0578 76.1613 59.612 78.0334 64.6035 78.0334C69.6603 78.0334 74.2683 76.112 77.7372 72.9594C78.6319 73.0849 79.5459 73.1498 80.4751 73.1498C86.075 73.1498 91.1246 70.7935 94.6864 67.0182C97.8996 69.3398 101.847 70.708 106.114 70.708C116.903 70.708 125.649 61.9621 125.649 51.1735C125.649 40.3849 116.903 31.639 106.114 31.639C104.824 31.639 103.563 31.7641 102.342 32.0029C101.305 22.1912 93.0037 14.5463 82.917 14.5463C78.7704 14.5463 74.9256 15.8383 71.7631 18.0417Z" fill="url(#paint2_linear_58_4)" fill-opacity="0.2" shape-rendering="crispEdges"/>
<path fill-rule="evenodd" clip-rule="evenodd" d="M71.7631 18.0417C67.9753 10.88 60.4495 6 51.784 6C39.3097 6 29.1972 16.1124 29.1972 28.5867C29.1972 29.7586 29.2865 30.9095 29.4585 32.0333C28.1908 31.7747 26.8785 31.639 25.5345 31.639C14.7459 31.639 6 40.3849 6 51.1735C6 61.9621 14.7459 70.708 25.5345 70.708C29.4839 70.708 33.1595 69.5359 36.2326 67.5207C39.7601 71.0014 44.6054 73.1498 49.9525 73.1498C50.5089 73.1498 51.06 73.1265 51.6047 73.0809C55.0578 76.1613 59.612 78.0334 64.6035 78.0334C69.6603 78.0334 74.2683 76.112 77.7372 72.9594C78.6319 73.0849 79.5459 73.1498 80.4751 73.1498C86.075 73.1498 91.1246 70.7935 94.6864 67.0182C97.8996 69.3398 101.847 70.708 106.114 70.708C116.903 70.708 125.649 61.9621 125.649 51.1735C125.649 40.3849 116.903 31.639 106.114 31.639C104.824 31.639 103.563 31.7641 102.342 32.0029C101.305 22.1912 93.0037 14.5463 82.917 14.5463C78.7704 14.5463 74.9256 15.8383 71.7631 18.0417Z" fill="url(#paint3_linear_58_4)" fill-opacity="0.2" shape-rendering="crispEdges"/>
</g>
<path d="M37.4431 64.9989L37.8524 72.371C38.0529 75.9823 34.2042 78.4057 31.0342 76.664C27.8642 74.9224 27.8456 70.3743 31.0013 68.6069L37.4431 64.9989Z" fill="url(#paint4_linear_58_4)"/>
<path d="M37.4431 64.9989L37.8524 72.371C38.0529 75.9823 34.2042 78.4057 31.0342 76.664C27.8642 74.9224 27.8456 70.3743 31.0013 68.6069L37.4431 64.9989Z" fill="black" fill-opacity="0.2"/>
<path d="M15.3175 72.3719L15.7755 80.6219C15.9998 84.6633 11.6928 87.3752 8.14529 85.4262C4.59781 83.4771 4.57704 78.3875 8.1085 76.4096L15.3175 72.3719Z" fill="url(#paint5_linear_58_4)"/>
<path d="M15.3175 72.3719L15.7755 80.6219C15.9998 84.6633 11.6928 87.3752 8.14529 85.4262C4.59781 83.4771 4.57704 78.3875 8.1085 76.4096L15.3175 72.3719Z" fill="black" fill-opacity="0.2"/>
<path d="M42.9049 80.8014L43.3629 89.0513C43.5872 93.0928 39.2802 95.8047 35.7327 93.8556C32.1852 91.9066 32.1644 86.8169 35.6959 84.839L42.9049 80.8014Z" fill="url(#paint6_linear_58_4)"/>
<path d="M42.9049 80.8014L43.3629 89.0513C43.5872 93.0928 39.2802 95.8047 35.7327 93.8556C32.1852 91.9066 32.1644 86.8169 35.6959 84.839L42.9049 80.8014Z" fill="black" fill-opacity="0.2"/>
<path d="M24.5133 88.4645L24.9713 96.7145C25.1956 100.756 20.8886 103.468 17.3411 101.519C13.7936 99.5697 13.7728 94.4801 17.3043 92.5022L24.5133 88.4645Z" fill="url(#paint7_linear_58_4)"/>
<path d="M24.5133 88.4645L24.9713 96.7145C25.1956 100.756 20.8886 103.468 17.3411 101.519C13.7936 99.5697 13.7728 94.4801 17.3043 92.5022L24.5133 88.4645Z" fill="black" fill-opacity="0.2"/>
<g filter="url(#filter1_ii_58_4)">
<path d="M55.7445 75.6588L84.4561 60.3429C85.4903 59.7912 86.4662 61.1623 85.6064 61.9588L72.192 74.3843C71.6512 74.8852 71.8199 75.7792 72.5061 76.0487L89.1817 82.5976C89.922 82.8883 90.0431 83.885 89.3939 84.3446L55.5652 108.293C54.5914 108.982 53.4459 107.694 54.2442 106.808L73.6625 85.2392C74.1395 84.7094 73.9248 83.865 73.2528 83.6273L55.8818 77.4839C55.0619 77.194 54.9773 76.0681 55.7445 75.6588Z" fill="url(#paint8_linear_58_4)"/>
<path d="M55.7445 75.6588L84.4561 60.3429C85.4903 59.7912 86.4662 61.1623 85.6064 61.9588L72.192 74.3843C71.6512 74.8852 71.8199 75.7792 72.5061 76.0487L89.1817 82.5976C89.922 82.8883 90.0431 83.885 89.3939 84.3446L55.5652 108.293C54.5914 108.982 53.4459 107.694 54.2442 106.808L73.6625 85.2392C74.1395 84.7094 73.9248 83.865 73.2528 83.6273L55.8818 77.4839C55.0619 77.194 54.9773 76.0681 55.7445 75.6588Z" fill="url(#paint9_linear_58_4)" fill-opacity="0.2"/>
</g>
<g clip-path="url(#clip0_58_4)">
<path d="M93.7266 51.6835C94.5379 51.0127 95.1676 50.8987 95.5914 50.9367C96.5723 51 96.8145 51.7722 97.747 51.6835C98.5704 51.6203 99.4786 50.9367 99.4786 50.9367" stroke="#301C1C" stroke-width="1.2" stroke-linecap="round" stroke-linejoin="round"/>
<path d="M105.231 51.2279C106.078 51.5823 106.769 51.6709 107.241 51.6835C108.21 51.7089 108.646 51.4304 109.542 51.5316C110.305 51.6203 110.898 51.9114 111.273 52.1392" stroke="#301C1C" stroke-width="1.2" stroke-linecap="round" stroke-linejoin="round"/>
<path d="M94.0172 46.2658L95.8821 44.7595L98.6189 44.7595C99.2001 45.0633 99.7693 45.3671 100.351 45.6582" stroke="#301C1C" stroke-width="1.2" stroke-linecap="round" stroke-linejoin="round"/>
<path d="M106.962 45.6582L108.258 45.0506C108.452 45 109.045 44.8987 109.699 45.2025C110.462 45.557 110.777 46.2279 110.85 46.4051" stroke="#301C1C" stroke-width="1.2" stroke-linecap="round" stroke-linejoin="round"/>
<path d="M95.7852 59.4304C96.6813 59.4177 97.4684 59.3544 98.086 59.2785C98.1829 59.2785 98.9821 59.1772 99.8661 59C100.411 58.8987 101.004 58.7595 101.089 58.7468C101.198 58.7215 101.295 58.6962 101.392 58.6709C102.7 58.3671 103.196 58.1899 103.838 58.0633C103.838 58.0633 104.153 58 106.575 57.9114C106.635 57.962 107.531 58.8734 107.289 59.8608C107.035 60.924 105.679 61.2658 104.843 61.2152C103.765 61.1519 103.051 60.4051 102.833 60.1646C100.835 58.0759 101.888 54.2025 101.985 53.8481" stroke="#301C1C" stroke-width="1.2" stroke-linecap="round" stroke-linejoin="round"/>
</g>
<defs>
<filter id="filter0_di_58_4" x="2" y="0" width="139.649" height="92.0334" filterUnits="userSpaceOnUse" color-interpolation-filters="sRGB">
<feFlood flood-opacity="0" result="BackgroundImageFix"/>
<feColorMatrix in="SourceAlpha" type="matrix" values="0 0 0 0 0 0 0 0 0 0 0 0 0 0 0 0 0 0 127 0" result="hardAlpha"/>
<feOffset dx="6" dy="4"/>
<feGaussianBlur stdDeviation="5"/>
<feComposite in2="hardAlpha" operator="out"/>
<feColorMatrix type="matrix" values="0 0 0 0 0.841667 0 0 0 0 0.469931 0 0 0 0 0.469931 0 0 0 0.25 0"/>
<feBlend mode="normal" in2="BackgroundImageFix" result="effect1_dropShadow_58_4"/>
<feBlend mode="normal" in="SourceGraphic" in2="effect1_dropShadow_58_4" result="shape"/>
<feColorMatrix in="SourceAlpha" type="matrix" values="0 0 0 0 0 0 0 0 0 0 0 0 0 0 0 0 0 0 127 0" result="hardAlpha"/>
<feOffset dx="5" dy="5"/>
<feGaussianBlur stdDeviation="5"/>
<feComposite in2="hardAlpha" operator="arithmetic" k2="-1" k3="1"/>
<feColorMatrix type="matrix" values="0 0 0 0 0.825 0 0 0 0 0.237188 0 0 0 0 0.237188 0 0 0 0.25 0"/>
<feBlend mode="normal" in2="shape" result="effect2_innerShadow_58_4"/>
</filter>
<filter id="filter1_ii_58_4" x="53.976" y="60.2155" width="37.8403" height="52.2728" filterUnits="userSpaceOnUse" color-interpolation-filters="sRGB">
<feFlood flood-opacity="0" result="BackgroundImageFix"/>
<feBlend mode="normal" in="SourceGraphic" in2="BackgroundImageFix" result="shape"/>
<feColorMatrix in="SourceAlpha" type="matrix" values="0 0 0 0 0 0 0 0 0 0 0 0 0 0 0 0 0 0 127 0" result="hardAlpha"/>
<feOffset dy="4"/>
<feGaussianBlur stdDeviation="2"/>
<feComposite in2="hardAlpha" operator="arithmetic" k2="-1" k3="1"/>
<feColorMatrix type="matrix" values="0 0 0 0 0.995833 0 0 0 0 0.929859 0 0 0 0 0.336094 0 0 0 1 0"/>
<feBlend mode="normal" in2="shape" result="effect1_innerShadow_58_4"/>
<feColorMatrix in="SourceAlpha" type="matrix" values="0 0 0 0 0 0 0 0 0 0 0 0 0 0 0 0 0 0 127 0" result="hardAlpha"/>
<feOffset dx="2" dy="2"/>
<feGaussianBlur stdDeviation="1"/>
<feComposite in2="hardAlpha" operator="arithmetic" k2="-1" k3="1"/>
<feColorMatrix type="matrix" values="0 0 0 0 1 0 0 0 0 1 0 0 0 0 1 0 0 0 0.1 0"/>
<feBlend mode="normal" in2="effect1_innerShadow_58_4" result="effect2_innerShadow_58_4"/>
</filter>
<linearGradient id="paint0_linear_58_4" x1="56.9598" y1="20.5599" x2="15.9621" y2="82.2481" gradientUnits="userSpaceOnUse">
<stop stop-color="#FFF5F5"/>
<stop offset="0.5" stop-color="#F79D9D" stop-opacity="0.427083"/>
<stop offset="1" stop-color="#5B4E4E" stop-opacity="0"/>
</linearGradient>
<linearGradient id="paint1_linear_58_4" x1="65.8244" y1="6" x2="40.1009" y2="69.2208" gradientUnits="userSpaceOnUse">
<stop offset="0.169345" stop-color="#31CBFC"/>
<stop offset="1" stop-color="#FFDF35" stop-opacity="0"/>
</linearGradient>
<linearGradient id="paint2_linear_58_4" x1="65.8244" y1="6" x2="38.5683" y2="66.9219" gradientUnits="userSpaceOnUse">
<stop offset="0.458333" stop-color="#A07533" stop-opacity="0"/>
<stop offset="0.88534" stop-color="#C88725"/>
<stop offset="1" stop-color="#C88725"/>
</linearGradient>
<linearGradient id="paint3_linear_58_4" x1="65.8244" y1="6" x2="65.8244" y2="78.0334" gradientUnits="userSpaceOnUse">
<stop stop-color="white"/>
<stop offset="0.5" stop-color="#45443E" stop-opacity="0.59"/>
<stop offset="1" stop-color="#FEB953"/>
</linearGradient>
<linearGradient id="paint4_linear_58_4" x1="37.4431" y1="64.9989" x2="31.0342" y2="76.664" gradientUnits="userSpaceOnUse">
<stop stop-color="#50D0E1" stop-opacity="0.72"/>
<stop offset="1" stop-color="#9CC0F7"/>
</linearGradient>
<linearGradient id="paint5_linear_58_4" x1="15.3175" y1="72.3719" x2="8.1453" y2="85.4262" gradientUnits="userSpaceOnUse">
<stop stop-color="#50D0E1" stop-opacity="0.72"/>
<stop offset="1" stop-color="#F7D29C"/>
</linearGradient>
<linearGradient id="paint6_linear_58_4" x1="42.9049" y1="80.8014" x2="35.7327" y2="93.8556" gradientUnits="userSpaceOnUse">
<stop stop-color="#79DEEC" stop-opacity="0.72"/>
<stop offset="1" stop-color="#6392DA"/>
</linearGradient>
<linearGradient id="paint7_linear_58_4" x1="24.5133" y1="88.4645" x2="17.3411" y2="101.519" gradientUnits="userSpaceOnUse">
<stop stop-color="#CDE150" stop-opacity="0.72"/>
<stop offset="0.447917" stop-color="#9CC0F7"/>
</linearGradient>
<linearGradient id="paint8_linear_58_4" x1="92.3965" y1="57.7055" x2="44.8908" y2="110.471" gradientUnits="userSpaceOnUse">
<stop stop-color="#FAD71F"/>
<stop offset="1" stop-color="#ED702A" stop-opacity="0.65"/>
</linearGradient>
<linearGradient id="paint9_linear_58_4" x1="92.3965" y1="57.7055" x2="44.8908" y2="110.471" gradientUnits="userSpaceOnUse">
<stop stop-color="#FFEEC4"/>
<stop offset="1" stop-color="#FC3B3B" stop-opacity="0"/>
</linearGradient>
<clipPath id="clip0_58_4">
<rect width="19" height="18" fill="white" transform="translate(93 44)"/>
</clipPath>
</defs>
</svg>
