<svg width="148" height="121" viewBox="0 0 148 121" fill="none" xmlns="http://www.w3.org/2000/svg">
<ellipse cx="101.452" cy="42.9677" rx="41.7742" ry="42.9677" fill="url(#paint0_linear_101_313)"/>
<path d="M46.8163 34.9355L0 120.871H148L103.449 62.5576L86.8367 84.8088L46.8163 34.9355Z" fill="url(#paint1_linear_101_313)"/>
<path d="M105.302 47.6038C107.125 47.6038 108.604 46.1255 108.604 44.3019C108.604 42.4783 107.125 41 105.302 41C103.478 41 102 42.4783 102 44.3019C102 46.1255 103.478 47.6038 105.302 47.6038Z" fill="black"/>
<path d="M120.344 50.9057C122.167 50.9057 123.646 49.4274 123.646 47.6038C123.646 45.7802 122.167 44.3019 120.344 44.3019C118.52 44.3019 117.042 45.7802 117.042 47.6038C117.042 49.4274 118.52 50.9057 120.344 50.9057Z" fill="black"/>
<g filter="url(#filter0_i_101_313)">
<path d="M113.747 56.6097C113.387 58.7279 111.38 60.1469 109.268 59.787C107.157 59.427 105.731 57.4196 106.091 55.3083" fill="black"/>
</g>
<circle cx="105.531" cy="45.7745" r="1" fill="white"/>
<circle cx="120.531" cy="48.7745" r="1" fill="white"/>
<defs>
<filter id="filter0_i_101_313" x="106.035" y="55.3083" width="7.71167" height="8.53447" filterUnits="userSpaceOnUse" color-interpolation-filters="sRGB">
<feFlood flood-opacity="0" result="BackgroundImageFix"/>
<feBlend mode="normal" in="SourceGraphic" in2="BackgroundImageFix" result="shape"/>
<feColorMatrix in="SourceAlpha" type="matrix" values="0 0 0 0 0 0 0 0 0 0 0 0 0 0 0 0 0 0 127 0" result="hardAlpha"/>
<feOffset dy="4"/>
<feGaussianBlur stdDeviation="2"/>
<feComposite in2="hardAlpha" operator="arithmetic" k2="-1" k3="1"/>
<feColorMatrix type="matrix" values="0 0 0 0 0.475 0 0 0 0 0.1425 0 0 0 0 0.1425 0 0 0 1 0"/>
<feBlend mode="normal" in2="shape" result="effect1_innerShadow_101_313"/>
</filter>
<linearGradient id="paint0_linear_101_313" x1="101.452" y1="0" x2="101.452" y2="85.9355" gradientUnits="userSpaceOnUse">
<stop stop-color="#FF7C03"/>
<stop offset="0.5" stop-color="#E6B91D" stop-opacity="0.5"/>
<stop offset="1" stop-color="white" stop-opacity="0.5"/>
</linearGradient>
<linearGradient id="paint1_linear_101_313" x1="95.1429" y1="34.9355" x2="77.243" y2="107.696" gradientUnits="userSpaceOnUse">
<stop offset="0.13955" stop-color="#D3E757"/>
<stop offset="0.653414" stop-color="#26BD75"/>
<stop offset="0.997688" stop-color="#E7C347" stop-opacity="0"/>
</linearGradient>
</defs>
</svg>
