<svg width="68" height="54" viewBox="0 0 68 54" fill="none" xmlns="http://www.w3.org/2000/svg">
<g clip-path="url(#clip0_99_52)">
<path d="M1.16818 18.9805C7.05539 1.47598 29.4054 -5.67498 44.1361 5.05147C32.4532 -1.58871 17.2145 -1.07793 8.0713 9.64851C-0.563943 19.3534 -1.0719 33.1445 7.05539 43.3602C16.1986 54.0867 32.9611 55.619 42.6123 45.4033C50.2316 37.2308 51.2475 24.4612 43.6282 15.2671C40.5805 11.6916 36.0089 9.13773 31.4373 8.62695C23.31 7.0946 15.1827 10.1593 11.119 17.821C8.0713 24.4612 7.56334 33.1445 13.6588 38.2524C9.08721 29.5691 10.1031 17.3103 19.7543 12.7132C24.3259 10.6701 29.9134 10.1593 34.485 12.2024C42.1043 15.7779 46.6759 23.9504 45.1521 32.6338C43.1202 44.3818 29.9134 51.022 19.2463 46.9357C10.6111 43.3602 4.51561 34.6769 6.03948 24.4612C7.56334 14.7563 15.1827 7.0946 24.8338 5.56225C36.5168 4.0299 47.1839 12.2024 50.2316 23.4397C53.2793 35.6985 45.66 48.468 34.485 52.5543C17.7225 58.6837 -0.0559879 44.3818 -0.000112775 27.1633C0.289422 22.7297 0.802457 20.2371 1.16818 18.9805Z" fill="#53C2E9"/>
<path d="M27 32C28.6569 32 30 30.6569 30 29C30 27.3431 28.6569 26 27 26C25.3431 26 24 27.3431 24 29C24 30.6569 25.3431 32 27 32Z" fill="white"/>
<path d="M67.7461 39.1056V39.1873" stroke="white" stroke-miterlimit="10"/>
</g>
<defs>
<clipPath id="clip0_99_52">
<rect width="68" height="54" fill="white"/>
</clipPath>
</defs>
</svg>
