<svg width="36" height="33" viewBox="0 0 36 33" fill="none" xmlns="http://www.w3.org/2000/svg">
<g filter="url(#filter0_f_99_54)">
<rect x="3" y="3" width="30" height="27" rx="13.5" fill="#62D0F2"/>
</g>
<g clip-path="url(#clip0_99_54)">
<path d="M12.58 18.51C13.7232 18.51 14.65 17.5832 14.65 16.44C14.65 15.2968 13.7232 14.37 12.58 14.37C11.4368 14.37 10.51 15.2968 10.51 16.44C10.51 17.5832 11.4368 18.51 12.58 18.51Z" fill="black"/>
<path d="M22.27 18.51C23.4132 18.51 24.34 17.5832 24.34 16.44C24.34 15.2968 23.4132 14.37 22.27 14.37C21.1267 14.37 20.2 15.2968 20.2 16.44C20.2 17.5832 21.1267 18.51 22.27 18.51Z" fill="black"/>
<path d="M15.51 22.02H18.6" stroke="#301C1C" stroke-width="1.5" stroke-linecap="round" stroke-linejoin="round"/>
<path d="M20.2 12.04C20.2 12.04 23.41 11.56 24.33 12.04" stroke="#301C1C" stroke-width="1.5" stroke-linecap="round" stroke-linejoin="round"/>
<path d="M13.65 11.99C13.65 11.99 11.27 10.38 10.75 10.83" stroke="#301C1C" stroke-width="1.5" stroke-linecap="round" stroke-linejoin="round"/>
</g>
<defs>
<filter id="filter0_f_99_54" x="0" y="0" width="36" height="33" filterUnits="userSpaceOnUse" color-interpolation-filters="sRGB">
<feFlood flood-opacity="0" result="BackgroundImageFix"/>
<feBlend mode="normal" in="SourceGraphic" in2="BackgroundImageFix" result="shape"/>
<feGaussianBlur stdDeviation="1.5" result="effect1_foregroundBlur_99_54"/>
</filter>
<clipPath id="clip0_99_54">
<rect width="15.08" height="12.77" fill="white" transform="translate(10 10)"/>
</clipPath>
</defs>
</svg>
