<svg width="87" height="86" viewBox="0 0 87 86" fill="none" xmlns="http://www.w3.org/2000/svg">
<g clip-path="url(#clip0_99_55)">
<path d="M13.9169 59.7835C6.13247 43.0362 17.4155 22.4607 35.4836 20.0955C22.4393 23.3252 11.7407 34.1888 12.4967 48.263C12.9176 61.2466 22.0457 71.597 34.9736 73.4085C48.9899 74.8909 62.2004 64.4595 62.1645 50.4059C62.0621 39.233 54.0058 29.2736 42.1497 27.8531C37.4776 27.359 32.4039 28.655 28.737 31.4326C21.7884 35.9178 18.0052 43.7365 20.3343 52.0906C22.6966 59.0044 28.3075 65.6509 36.2449 65.1575C26.9505 62.0088 19.2459 52.4198 23.0789 42.4405C24.9871 37.811 28.6872 33.5931 33.4092 31.9267C41.3964 29.2729 50.339 32.0512 55.2132 39.3972C61.8294 49.3154 56.8249 63.2246 46.2759 67.6067C37.552 70.9601 27.1526 68.8607 21.2232 60.4035C15.6456 52.3167 15.8949 41.5142 21.8383 33.7573C29.255 24.6013 42.6177 23.1824 52.5657 29.2324C63.217 36.0232 66.4849 50.5296 61.1951 61.1878C53.2604 77.1751 30.5202 79.0462 18.7042 66.5217C15.8612 63.1073 14.5169 60.9465 13.9169 59.7835Z" fill="#D85454"/>
<path d="M42.0032 52.6405C43.6367 51.0893 43.6965 48.5001 42.1366 46.8575C40.5768 45.2149 37.9881 45.1407 36.3545 46.6919C34.721 48.2431 34.6612 50.8322 36.2211 52.4749C37.7809 54.1175 40.3696 54.1916 42.0032 52.6405Z" fill="white"/>
<path d="M76.0537 28.5323L76.11 28.5915" stroke="white" stroke-miterlimit="10"/>
<circle cx="32.5" cy="42.5" r="1.5" fill="#D9D9D9"/>
<circle cx="45.5" cy="42.5" r="1.5" fill="#D9D9D9"/>
<rect x="33" y="56" width="13" height="3" rx="1.5" fill="#D9D9D9"/>
</g>
<defs>
<clipPath id="clip0_99_55">
<rect width="68" height="54" fill="white" transform="translate(0 46.8242) rotate(-43.5187)"/>
</clipPath>
</defs>
</svg>
