<svg width="39" height="42" viewBox="0 0 39 42" fill="none" xmlns="http://www.w3.org/2000/svg">
<g clip-path="url(#clip0_99_51)">
<path d="M0.895132 14.7627C5.40531 1.14808 22.5276 -4.41378 33.8128 3.92901C24.8625 -1.23557 13.1882 -0.838296 6.1836 7.5045C-0.431849 15.0527 -0.820993 25.7792 5.40531 33.7247C12.4099 42.0675 25.2516 43.2593 32.6454 35.3138C38.4825 28.9574 39.2608 19.0255 33.4237 11.8745C31.0888 9.0936 27.5865 7.10722 24.0842 6.70994C17.8579 5.51812 11.6316 7.90177 8.51846 13.8609C6.1836 19.0255 5.79445 25.7792 10.4642 29.7519C6.96188 22.9983 7.74017 13.4636 15.1339 9.88815C18.6362 8.29905 22.9168 7.90177 26.4191 9.49087C32.2562 12.2718 35.7585 18.6282 34.5911 25.3819C33.0345 34.5192 22.9168 39.6838 14.7448 36.5056C8.12932 33.7247 3.45959 26.971 4.62702 19.0255C5.79445 11.4773 11.6316 5.51812 19.0253 4.32629C27.9757 3.13446 36.1477 9.49087 38.4825 18.2309C40.8174 27.7656 34.9802 37.6975 26.4191 40.8757C13.5773 45.643 -0.0427052 34.5192 0.000100639 21.1271C0.221913 17.6787 0.614948 15.74 0.895132 14.7627Z" fill="#56CAF2"/>
</g>
<g clip-path="url(#clip1_99_51)" filter="url(#filter0_d_99_51)">
<path d="M20.4429 18.0109C20.4429 18.0109 20.5324 17.8359 20.5682 17.8008C20.5324 17.8359 20.425 18.0634 20.4429 18.0109Z" fill="#463434"/>
<path d="M20.085 18.3961L20.1208 18.3085L20.0134 18.5011L20.085 18.3961Z" fill="#463434"/>
<path d="M19.9598 18.326C19.7987 18.6761 20.0314 18.291 19.9956 18.431L19.9598 18.501L20.103 18.2385C20.103 18.2385 19.924 18.431 19.9598 18.326Z" fill="#463434"/>
<path d="M20.2459 17.5733C20.1923 17.7133 20.1744 17.6783 20.2459 17.6258C20.2459 17.6258 20.2459 17.6083 20.2459 17.5908V17.5733Z" fill="#463434"/>
<path d="M20.1566 17.6258L20.2282 17.5208C20.2282 17.5208 20.264 17.4157 20.2818 17.3632C20.2282 17.4157 20.1924 17.5033 20.1387 17.6258H20.1566Z" fill="#463434"/>
<path d="M20.0134 17.8709L20.0492 17.8184C20.0492 17.8184 20.0492 17.7658 20.0134 17.8709Z" fill="#463434"/>
<path d="M20.1208 17.7308L20.0493 17.8184C20.0493 17.8184 19.9777 17.9759 20.085 17.7833C20.0314 17.8884 20.085 17.7833 20.1208 17.7133V17.7308Z" fill="#463434"/>
<path d="M20.1027 17.7834C20.1027 17.7834 20.0669 17.9059 19.9954 18.0284C20.0491 17.9934 20.1743 17.7659 20.1027 17.7834Z" fill="#463434"/>
<path d="M19.7807 18.6761L19.7449 18.7812L19.8165 18.6761C19.8165 18.6761 19.8344 18.5711 19.7807 18.6761Z" fill="#463434"/>
<path d="M20.1387 17.3982C20.1387 17.3982 20.0492 17.5908 20.0134 17.6783L20.0671 17.6083C20.0671 17.6083 20.085 17.5032 20.1387 17.3982Z" fill="#463434"/>
<path d="M19.9955 17.6783L19.906 17.8008C19.906 17.8008 19.9418 17.7658 19.9955 17.6783Z" fill="#463434"/>
<path d="M19.8343 18.2385L19.9954 17.9934L19.8164 18.2385H19.8343Z" fill="#463434"/>
<path d="M20.0492 17.3457L20.1566 17.1882L20.0134 17.4332L20.0492 17.3457Z" fill="#463434"/>
<path d="M19.9954 17.3632C20.0669 17.2232 20.1027 17.1356 20.1564 17.0481C20.1385 17.0656 20.0669 17.1706 19.9954 17.2757C20.0312 17.2232 20.0491 17.2407 19.9954 17.3632Z" fill="#463434"/>
<path d="M19.8882 17.4157C19.8882 17.4157 19.9419 17.3282 19.9777 17.2757C19.9598 17.3107 19.924 17.3457 19.8882 17.4157Z" fill="#463434"/>
<path d="M19.906 17.7483C19.906 17.7483 19.9776 17.5908 19.9955 17.5383L19.906 17.7483Z" fill="#463434"/>
<path d="M19.8703 18.0284C19.7987 18.1335 19.7271 18.2385 19.6555 18.4311C19.7271 18.291 19.7629 18.186 19.8703 18.0284Z" fill="#463434"/>
<path d="M19.7808 18.0109V18.0634C19.7808 18.0634 19.8524 17.9409 19.8702 17.8708L19.7808 17.9934V18.0109Z" fill="#463434"/>
<path d="M19.7449 18.0634L19.7807 18.0109V17.9934L19.7449 18.0634Z" fill="#463434"/>
<path d="M19.8344 17.6258C19.8344 17.6258 19.7628 17.7133 19.7449 17.7133C19.7449 17.7658 19.7449 17.7833 19.7449 17.7833C19.7807 17.7133 19.8344 17.6083 19.8165 17.6083L19.8344 17.6258Z" fill="#463434"/>
<path d="M19.6375 17.6608L19.6196 17.6958L19.6375 17.6608Z" fill="#463434"/>
<path d="M19.7449 17.8358C19.7449 17.8358 19.7628 17.8358 19.7986 17.7658L19.7628 17.7833C19.7628 17.8183 19.7449 17.8358 19.7628 17.8183L19.7449 17.8358Z" fill="#463434"/>
<path d="M19.8166 17.5033C19.8166 17.5033 19.7808 17.5908 19.7808 17.6258C19.7987 17.5558 19.8524 17.4508 19.8166 17.5033Z" fill="#463434"/>
<path d="M19.8702 17.6608C19.8702 17.6608 19.8165 17.7308 19.7986 17.7834C19.7986 17.7834 19.8344 17.7484 19.8523 17.7308C19.8523 17.7308 19.8523 17.6958 19.8702 17.6783V17.6608Z" fill="#463434"/>
<path d="M18.9754 18.9562C19.0649 18.7636 19.1723 18.6061 19.1007 18.8162C19.1902 18.6761 19.4765 18.0634 19.6197 17.7133C19.5839 17.8008 19.5481 17.8709 19.4586 17.9759C19.4228 18.0809 19.387 18.2385 19.2797 18.396C19.2081 18.4836 19.2797 18.326 19.3155 18.221C19.2081 18.4661 19.1186 18.5536 18.9575 18.8862L19.047 18.7812C19.047 18.7812 18.9754 18.9212 18.9575 18.9737L18.9754 18.9562Z" fill="#463434"/>
<path d="M19.6553 17.7483H19.6732C19.6732 17.7483 19.709 17.6083 19.7627 17.4683C19.709 17.5558 19.6732 17.6258 19.6375 17.6783L19.6732 17.7308V17.7659L19.6553 17.7483Z" fill="#463434"/>
<path d="M19.7091 17.7308C19.6017 17.9234 19.5481 18.0109 19.4407 18.2385C19.4765 18.2385 19.5481 18.0809 19.6017 17.9934C19.5302 18.0284 19.6733 17.8884 19.6912 17.7483C19.7091 17.7133 19.727 17.7133 19.7449 17.7133C19.7449 17.6783 19.7449 17.6433 19.7628 17.6083C19.7628 17.6083 19.7628 17.6608 19.7628 17.6433L19.727 17.7308C19.727 17.6783 19.7449 17.6783 19.7628 17.6608V17.6258L19.6733 17.7133C19.6733 17.7133 19.6733 17.7483 19.7091 17.7133V17.7308Z" fill="#463434"/>
<path d="M19.4586 18.7286C19.4586 18.7286 19.5123 18.6236 19.5123 18.6411C19.4944 18.7111 19.4586 18.7461 19.4229 18.7986C19.4586 18.7461 19.5123 18.6586 19.5481 18.5536V18.5886C19.5481 18.5886 19.6555 18.2385 19.6734 18.2209C19.5839 18.4135 19.5302 18.536 19.4407 18.7286H19.4586Z" fill="#463434"/>
<path d="M19.5659 18.291L19.4764 18.3785L19.4048 18.5711L19.4585 18.4661C19.4585 18.4661 19.5122 18.3785 19.5659 18.3085V18.291Z" fill="#463434"/>
<path d="M19.6912 17.5558L19.7986 17.3457L19.6196 17.6433L19.6912 17.5558Z" fill="#463434"/>
<path d="M19.6196 17.5733L19.727 17.3807L19.6554 17.4858L19.6196 17.5733Z" fill="#463434"/>
<path d="M18.5101 17.1006C18.5817 16.9081 18.6891 16.628 18.5817 16.8556L18.4922 17.0656C18.4922 17.0656 18.5101 17.0656 18.4922 17.1006H18.5101Z" fill="#463434"/>
<path d="M17.2036 18.0284V18.0984C17.2036 18.0984 17.2394 17.9584 17.2752 17.9059L17.2036 18.0284Z" fill="#463434"/>
<path d="M15.6108 18.9387L15.5034 19.1488C15.5034 19.1488 15.5571 19.0438 15.6108 18.9387Z" fill="#463434"/>
<path d="M19.1363 17.4333C19.1363 17.4333 19.1721 17.3107 19.1721 17.2932C19.1363 17.4158 19.0648 17.6083 19.1363 17.4333Z" fill="#463434"/>
<path d="M17.0425 16.628C17.0425 16.628 17.0067 16.698 16.9888 16.7505C17.0067 16.7155 17.0246 16.6805 17.0425 16.628Z" fill="#463434"/>
<path d="M19.1184 17.2757C19.1184 17.2757 19.1184 17.3107 19.1184 17.3282C19.1363 17.2932 19.1721 17.2757 19.1721 17.2932C19.2079 17.2056 19.2079 17.1356 19.1363 17.2932L19.1184 17.2757Z" fill="#463434"/>
<path d="M19.1543 18.2385C19.1543 18.2385 19.1185 18.291 19.1006 18.3435C19.1185 18.291 19.1364 18.256 19.1543 18.2385Z" fill="#463434"/>
<path d="M19.5122 17.3982V17.4157C19.5122 17.3807 19.548 17.3632 19.5122 17.3982Z" fill="#463434"/>
<path d="M15.2349 17.9409C15.2349 17.9409 15.2349 17.9409 15.2349 17.9234C15.1991 18.0109 15.1991 17.9934 15.2349 17.9409Z" fill="#463434"/>
<path d="M17.293 19.1488L17.3109 19.1313L17.293 19.1488Z" fill="#463434"/>
<path d="M17.1856 19.2888C17.3109 19.0262 17.3109 19.0787 17.293 19.1312L17.5436 18.5186L17.1677 19.2888H17.1856Z" fill="#463434"/>
<path d="M15.8791 18.8512L15.8255 19.0437C15.6644 19.3413 15.7002 19.2363 15.6107 19.4989C15.8791 18.8337 15.736 19.4639 16.0044 18.7987L15.9686 18.9387H15.9507C15.8434 19.2888 16.1655 18.4836 16.1655 18.6061C16.1655 18.6586 16.1297 18.7636 16.0939 18.8337L16.1834 18.6761L16.1297 18.7987L16.2013 18.7636C16.2013 18.7636 16.3266 18.5361 16.3624 18.4661C16.3266 18.5711 16.3266 18.5361 16.2908 18.6236L16.3803 18.4661C16.3266 18.6411 16.2371 18.7987 16.2192 18.7636C15.9686 19.4289 16.3087 18.6061 16.2013 19.0087L16.1476 19.0787C16.0044 19.4639 16.076 19.3238 16.0044 19.5689C16.0581 19.4464 16.2013 18.9562 16.2908 18.7987C16.2908 18.8512 16.2908 18.8862 16.3445 18.7461C16.255 18.9737 16.2908 18.9212 16.3087 18.9212L16.1834 19.2363C16.1834 19.2363 16.3087 18.9912 16.3803 18.8687C16.3803 18.9037 16.2908 19.1488 16.2192 19.3588C16.2192 19.4289 16.3624 18.9562 16.4161 18.9212C16.3982 19.0437 16.4698 18.9212 16.5771 18.7636C16.5592 18.8862 16.4876 18.9562 16.4698 19.0437L16.595 18.7987C16.595 18.7987 16.5592 18.8862 16.5413 18.9212C16.595 18.8337 16.6666 18.6061 16.7382 18.5361C16.8993 18.2035 16.5771 19.0612 16.774 18.6761C16.7382 18.7636 16.6845 18.8687 16.6308 18.9912C16.774 18.7461 16.7382 18.8162 16.9172 18.5011L16.8635 18.7111C16.9351 18.4661 17.0962 18.2035 17.2035 17.9934C17.2393 17.8709 17.2751 17.7833 17.293 17.7308L17.4004 17.5733C17.4004 17.5733 17.3288 17.7308 17.2751 17.8534L17.3109 17.7833C17.2751 17.9059 17.1856 18.0809 17.114 18.256L17.1856 18.0634C17.0962 18.256 17.0067 18.4486 16.9172 18.6411C16.9172 18.6061 16.953 18.5711 16.9709 18.5711C16.953 18.6236 16.9351 18.6586 16.9172 18.6936C16.9172 18.7286 16.9351 18.6586 16.9709 18.5886L16.8277 18.9387L16.8814 18.7987L16.8277 19.0262C17.0067 18.6936 17.2572 18.2035 17.3825 18.0809C17.2572 18.326 17.2035 18.4836 17.0604 18.7987C17.1856 18.4836 16.953 18.9212 16.953 18.8337C16.953 18.8687 16.8814 19.0087 16.8635 19.0612L17.0425 18.7987C16.9351 19.0437 16.9709 18.9912 16.9351 19.0963C17.1319 18.6061 17.114 18.7987 17.2035 18.6586C17.1319 18.8162 17.0604 18.9912 17.0425 18.9387C16.9172 19.3063 17.3288 18.3785 17.2214 18.7111C17.2214 18.7111 17.2214 18.6936 17.1856 18.7636C17.2572 18.6236 17.2572 18.7636 17.1856 18.8862C17.1856 18.8862 17.3109 18.9387 17.4899 18.5361C17.472 18.5886 17.2572 19.0262 17.2214 19.1138L17.9015 17.7658C17.7404 18.1159 17.3825 18.9562 17.2572 19.1488C17.2572 19.2013 17.2214 19.2713 17.3109 19.1488C17.3109 19.0963 17.5257 18.6411 17.5436 18.6061C17.4004 19.0087 17.472 18.8162 17.3467 19.1663C17.3646 19.0787 17.6331 18.5361 17.6331 18.5711C17.5973 18.6586 17.3825 19.1138 17.3646 19.1663L17.651 18.6411C17.5973 18.7286 17.4362 19.0963 17.3825 19.2538C17.4183 19.1488 17.4183 19.2713 17.4541 19.2363L17.4899 19.0963C17.4899 19.2013 17.8836 18.361 17.9015 18.396C17.8478 18.5011 17.5794 19.0787 17.5615 19.1488C17.7047 18.8687 18.2058 17.8359 18.3489 17.6433L18.2774 17.8008L18.3847 17.6258C18.17 18.0284 17.7225 18.8862 17.5436 19.2188C17.5078 19.3588 17.472 19.4114 17.4899 19.4114C17.4362 19.5689 17.3825 19.6214 17.3646 19.6389V19.7615C17.5257 19.4464 17.5615 19.4639 17.6868 19.1838L17.472 19.4989C17.6152 19.1838 17.9194 18.6061 17.9373 18.6761C17.8836 18.8162 17.6689 19.2538 17.6152 19.3588C17.6689 19.2538 17.7583 19.1663 17.7225 19.2363L17.6331 19.3938C17.5973 19.5164 17.8657 18.9912 17.7583 19.3063C17.7583 19.3238 17.5973 19.7265 17.6868 19.5514C17.8478 19.1838 18.3668 18.0459 18.4921 17.7658C18.4921 17.8008 18.3847 18.1335 18.3132 18.326C18.1879 18.6236 17.9731 19.0087 17.8657 19.2538C17.9194 19.1663 17.9731 19.0612 17.991 19.0262C17.9731 19.1138 17.8657 19.2888 17.9015 19.2713C18.0626 18.9387 17.9373 19.3238 18.0447 19.0087C18.1163 18.9212 18.0447 19.0787 18.0626 19.0787C18.1521 18.8687 18.4205 18.3785 18.4921 18.291C18.4563 18.3785 18.4026 18.4836 18.3847 18.5361C18.4205 18.5886 18.3847 18.7461 18.4026 18.7636C18.3668 18.8512 18.3489 18.9562 18.2774 19.0787C18.3132 19.0262 18.3668 18.9212 18.3847 18.9212C18.2774 19.2188 18.331 18.9562 18.1879 19.3063C18.2774 19.1138 18.3489 19.0612 18.4205 18.9562C18.5458 18.6586 18.4205 18.8862 18.331 18.9912C18.5279 18.5886 18.7427 18.186 18.8859 18.0109C18.9753 17.9234 18.7785 18.2735 18.8143 18.221C18.8501 18.326 19.208 17.5383 19.1185 17.8534C19.0111 18.1159 18.868 18.361 18.7964 18.5536C18.7248 18.6411 18.8322 18.3785 18.7964 18.3785L18.7606 18.5186C18.7606 18.5186 18.6711 18.6586 18.689 18.5711C18.5995 18.8162 18.7785 18.6586 18.7248 18.9037C18.7785 18.8162 18.8322 18.7461 18.868 18.6411L18.8322 18.6761C18.9217 18.4661 18.9932 18.396 19.029 18.291C19.1185 18.151 19.2438 17.9409 19.2259 18.0634L19.0827 18.361C19.0827 18.361 19.1543 18.186 19.0827 18.256C19.1543 18.1335 18.9396 18.6761 19.1364 18.291L19.208 18.0809C19.2975 17.9409 19.4765 17.6433 19.4586 17.7483C19.5838 17.4507 19.4407 17.7833 19.5838 17.4332C19.4049 17.8534 19.5302 17.3807 19.3333 17.8359C19.4944 17.4332 19.387 17.6608 19.5123 17.3107C19.4586 17.4157 19.4407 17.5033 19.4407 17.4332C19.4407 17.4682 19.4049 17.5033 19.387 17.5208C19.387 17.5558 19.3512 17.6083 19.3333 17.6783C19.208 17.8884 19.1901 17.8709 19.1185 17.9759C19.1185 17.9234 19.1722 17.8709 19.2259 17.7658L19.1185 17.9234C19.2259 17.7133 19.2617 17.5558 19.3512 17.4332H19.3333C19.3691 17.2757 19.3691 17.2232 19.3333 17.3107C19.3333 17.2582 19.1901 17.5383 19.2796 17.3632L19.1722 17.4682V17.4157C19.1722 17.4157 18.9396 17.7308 19.0648 17.3282C19.029 17.3807 18.9753 17.4332 18.9753 17.3632L19.0648 17.1707C19.0648 17.1707 19.1006 16.9606 18.9932 17.1531C19.208 16.6455 18.9574 16.9956 18.9574 16.9081L18.8501 17.1531C18.8501 17.1531 18.7785 17.1882 18.7069 17.2757L18.6174 17.4858C18.51 17.6433 18.6174 17.3107 18.5816 17.3107C18.6174 17.2232 18.6174 17.2582 18.5995 17.3107C18.7785 16.803 18.3489 17.6258 18.4563 17.2582C18.4026 17.3282 18.4205 17.3107 18.4384 17.2582C18.4384 17.2232 18.4563 17.1707 18.4742 17.1356C18.4563 17.1882 18.4384 17.2407 18.4384 17.2582C18.4384 17.2582 18.4026 17.2757 18.3668 17.3282L18.4742 17.1006C18.4742 17.1006 18.4205 17.2057 18.3489 17.3807C18.331 17.4157 18.2953 17.4682 18.2774 17.5208C18.4384 17.1356 18.1879 17.6258 18.3489 17.2232C18.2595 17.4157 18.2237 17.3457 18.0268 17.7483C18.0447 17.6958 18.0626 17.6608 18.0626 17.6608C18.0626 17.6083 18.0626 17.5558 18.0089 17.6608L18.1342 17.3632L17.9194 17.7483C17.991 17.5558 18.0268 17.4507 18.1342 17.2407C17.9373 17.5733 18.0447 17.3632 17.8478 17.6958L17.9373 17.5033C17.9373 17.5033 17.7941 17.7483 17.8478 17.5908C17.9731 17.2232 17.7225 17.4858 17.7941 17.1181C17.5615 17.6783 17.8657 16.8556 17.6689 17.2932C17.7225 17.1531 17.7404 17.0831 17.812 16.9606C17.7225 17.0831 17.8478 16.733 17.6689 17.0831C17.7225 16.9431 17.7583 16.8906 17.7941 16.803C17.7941 16.838 17.7404 16.9081 17.7583 16.838C17.7941 16.7505 17.812 16.733 17.8478 16.6805C17.7941 16.6805 17.6152 17.1006 17.4541 17.4858C17.5078 17.2932 17.4899 17.3107 17.3646 17.5558C17.4183 17.4332 17.4541 17.2932 17.5078 17.2582C17.5078 17.2407 17.5078 17.0306 17.3646 17.3457C17.4004 17.2582 17.3646 17.3107 17.3288 17.3457C17.3109 17.3107 17.3288 17.2932 17.2751 17.3107V17.3632C17.0962 17.7308 17.2035 17.4332 17.1498 17.4682V17.4332C17.2214 17.1356 17.0962 17.5558 17.1498 17.2232L17.0604 17.4507C16.8456 17.9409 17.1319 17.1356 17.0246 17.3107L16.9709 17.4507C16.8814 17.6083 17.2035 16.7505 17.2214 16.6805C17.2214 16.628 17.2572 16.6105 17.2751 16.5755C17.3467 16.2604 17.1319 16.8731 17.0783 16.9431C17.1498 16.768 17.2572 16.5229 17.2572 16.4879C17.293 16.3479 16.9709 16.9956 17.0604 16.663C17.0067 16.7855 16.9709 16.9256 16.9172 17.0131C16.8814 17.0481 17.0604 16.5054 16.8635 16.8906L16.8993 16.7855C16.8456 16.8731 16.774 16.9256 16.6666 17.1531C16.9888 16.3479 16.3982 17.5033 16.7024 16.7505H16.6308L16.6666 16.698C16.6666 16.628 16.5592 16.803 16.4876 16.9781C16.4876 16.9256 16.5413 16.8556 16.5592 16.8205C16.5592 16.6455 16.5592 16.6805 16.3624 17.0306L16.4519 16.7855C16.3803 16.9256 16.5234 16.3829 16.3624 16.6455C16.3624 16.6105 16.3982 16.5755 16.4161 16.5405C16.2371 16.803 16.5413 15.8052 16.1655 16.6805L16.0402 16.8906C16.0402 16.8906 15.8791 17.2757 15.8434 17.4332C15.8076 17.4858 15.897 17.1531 15.9328 17.1181V17.1707C16.1118 16.7155 15.9328 16.9781 16.0402 16.663C15.9328 16.663 15.9328 16.3479 15.8434 16.2954L15.7181 16.663V16.628C15.7181 16.628 15.7897 16.3479 15.8076 16.3654C15.8791 16.1553 15.7002 16.5229 15.6644 16.593C15.6644 16.4354 15.8434 16.1728 15.8255 16.1728H15.7897V16.2429C15.7181 16.3829 15.6644 16.5405 15.6286 16.5054C15.6286 16.4354 15.7002 16.2779 15.7002 16.2604C15.7002 16.2254 15.7002 16.2429 15.7002 16.2604L15.6644 16.2079L15.5749 16.5054C15.5033 16.6455 15.5391 16.4704 15.4317 16.803C15.5928 16.2954 15.3422 16.5755 15.3959 16.4179C15.2885 16.6105 15.2706 16.6105 15.2527 16.5755C15.2527 16.6455 15.1275 16.9606 15.1096 16.9081C15.3601 16.2429 15.1633 16.6105 15.3243 16.1203C15.2349 16.4354 15.217 16.1728 15.0917 16.628C15.0917 16.558 15.1812 16.3829 15.217 16.2254C15.0738 16.4704 15.1633 16.0153 15.0559 16.0853C15.0201 16.1728 14.9843 16.3129 14.9306 16.4354L15.0559 15.9803C15.0559 15.9803 14.859 16.4704 14.9485 16.1728C14.9306 16.2429 14.8948 16.3654 14.8769 16.3829C14.8948 15.9103 14.4832 16.6455 14.6442 15.7877C14.6085 15.9628 14.5906 15.9803 14.5727 15.9803C14.5727 16.0153 14.5011 16.1903 14.4474 16.3129L14.5011 15.9628C14.3758 16.2954 14.4295 15.9628 14.3221 16.2779L14.3579 16.2254C14.2684 16.5229 14.1789 16.9956 14 17.4682C14.1789 17.0481 13.8389 18.1159 14.1073 17.5208C14.0894 17.6258 14.0536 17.6783 14.0179 17.7833C14.1073 17.5908 14.1252 17.5383 14.1252 17.6433V17.6958C14.1252 17.6958 14.1431 17.8709 14.161 18.0459L14.2326 17.8008C14.2326 17.8008 14.2147 17.9059 14.1968 17.9759C14.34 17.6258 14.161 17.9409 14.3221 17.5558C14.1789 18.0459 14.4295 17.6083 14.2505 18.151C14.2684 18.151 14.34 17.8709 14.3579 17.8884L14.3042 18.0459L14.3758 17.8534C14.3758 17.8534 14.3221 18.0809 14.2684 18.2035C14.2684 18.2035 14.2505 18.2385 14.2326 18.2385C14.1968 18.4135 14.3042 18.2035 14.3042 18.256V18.151C14.4295 18.0284 14.4474 18.256 14.6085 17.9759L14.6442 17.8709C14.7695 17.6783 14.6442 18.0109 14.7337 17.9234C14.7337 17.9234 14.8232 17.8008 14.8232 17.8184C14.7695 17.9409 14.7516 18.0809 14.68 18.221C14.8232 18.0284 14.7695 18.0634 14.9664 17.6608L14.9127 17.8534C14.9843 17.6958 15.0201 17.6083 15.0738 17.5733C14.9843 17.7308 14.9843 17.8534 14.8769 18.0634C14.7874 18.4836 15.1096 17.6958 14.9127 18.291C15.1275 17.8008 14.9664 17.9934 15.0201 17.8884C15.0738 17.7133 15.1812 17.5208 15.1812 17.5733C15.1812 17.5908 14.9664 18.2385 15.0201 18.2385V18.2735C14.9664 18.4135 15.0917 18.1159 15.0201 18.326C15.1454 18.0284 15.038 18.361 15.1991 17.9584L15.1275 18.0284C15.1812 17.9409 15.3959 17.4858 15.3422 17.7308C15.3064 17.8008 15.2527 17.9059 15.2349 17.9584C15.1991 18.0809 15.2885 17.8884 15.2349 18.0109C15.0738 18.396 15.1454 18.0809 15.0201 18.361C14.9664 18.5361 15.1812 18.0984 15.0022 18.5186C15.2349 17.9934 15.0022 18.6061 15.217 18.2035L15.1275 18.431L15.1991 18.291L15.0738 18.5886C15.1991 18.3435 15.038 18.8337 15.1096 18.6936C15.0559 18.6936 15.1991 18.4135 15.2527 18.2385C15.4317 17.9409 15.0559 18.8687 15.1633 18.7812C15.1454 18.8162 15.1812 18.6236 15.2349 18.5186C15.2349 18.5711 15.217 18.6586 15.1633 18.7987C15.2349 18.7636 15.2527 18.5536 15.3243 18.4135C15.2349 18.7111 15.3959 18.3085 15.4496 18.221L15.3601 18.4661C15.3601 18.6411 15.5749 17.9759 15.5391 18.186L15.3959 18.5011L15.4496 18.431L15.3422 18.6936C15.4496 18.5011 15.4317 18.5536 15.4317 18.6411C15.4854 18.4661 15.6107 18.221 15.6286 18.221C15.5928 18.361 15.5391 18.4486 15.5749 18.4135C15.5033 18.5536 15.4317 18.7461 15.5033 18.5186L15.4138 18.7461C15.3601 18.9212 15.4496 18.7987 15.4496 18.7987C15.4496 18.7987 15.4496 18.7812 15.4496 18.7461L15.6286 18.431C15.5928 18.5186 15.5749 18.5886 15.5391 18.6586C15.557 18.6411 15.6107 18.5361 15.6286 18.5186C15.557 18.7111 15.4675 18.9037 15.4138 18.9912L15.5391 18.7987C15.5391 18.7987 15.4675 19.0437 15.4317 19.0963C15.4138 19.2188 15.6465 18.7461 15.6107 18.9037C15.6107 18.8687 15.6465 18.8337 15.6644 18.8162C15.6644 18.8687 15.6107 19.1138 15.7539 18.8687L15.6286 19.2188C15.6286 19.2188 15.7718 18.7812 15.8791 18.6586C15.9507 18.5536 15.7718 18.9562 15.736 19.0612C15.8255 18.8862 16.0044 18.5536 15.9149 18.8512C15.8791 18.9037 15.897 18.8512 15.8791 18.8862V18.8512ZM16.2908 18.8512C16.2908 18.8512 16.1834 19.0437 16.2371 18.9037C16.3624 18.6411 16.3087 18.7636 16.2908 18.8512ZM17.0604 18.5011C17.0604 18.5011 17.0246 18.5361 17.0604 18.4486C17.0604 18.4486 17.0783 18.4486 17.0604 18.5011ZM19.2975 17.6608L19.3512 17.5733C19.3512 17.5733 19.3154 17.6258 19.3154 17.6083C19.2975 17.6608 19.2796 17.7133 19.3154 17.6608H19.2975ZM15.7539 16.2954V16.3654C15.7539 16.3654 15.7181 16.3654 15.7539 16.2954Z" fill="#463434"/>
<path d="M16.8635 18.7812L16.9172 18.6586C16.9172 18.6586 16.8814 18.7462 16.8635 18.7812Z" fill="#463434"/>
<path d="M15.6285 18.8862L15.6106 18.9387L15.6285 18.8862Z" fill="#463434"/>
<path d="M17.8835 19.3763C17.8835 19.3763 17.9193 19.2888 17.9193 19.2538C17.9014 19.3063 17.8656 19.3588 17.8835 19.3763Z" fill="#463434"/>
<path d="M19.6374 17.3282L19.5837 17.3807C19.5837 17.3807 19.5837 17.4332 19.5837 17.4682C19.6016 17.4157 19.6553 17.3282 19.6553 17.3282H19.6374Z" fill="#463434"/>
<path d="M19.1365 18.8336C19.1365 18.8336 19.1365 18.8336 19.1544 18.7986L19.2081 18.6936C19.2081 18.6936 19.1365 18.7811 19.1365 18.8336Z" fill="#463434"/>
<path d="M19.2974 18.0985C19.2079 18.291 19.2437 18.2385 19.2974 18.2035C19.4406 17.9409 19.369 18.0109 19.3153 18.0985H19.2974Z" fill="#463434"/>
<path d="M19.2795 18.2035C19.2795 18.186 19.3332 18.0984 19.2795 18.2035V18.2035Z" fill="#463434"/>
<path d="M19.3869 17.5383C19.3869 17.5383 19.5121 17.2932 19.4764 17.3807C19.6016 17.1356 19.2974 17.6608 19.3869 17.5383Z" fill="#463434"/>
<path d="M18.9932 18.7461L19.1005 18.501L19.0111 18.6936L18.9932 18.7461Z" fill="#463434"/>
<path d="M18.9753 18.5185V18.5886C18.9753 18.5886 18.9932 18.5185 19.0111 18.5185C19.0111 18.5185 19.0111 18.4485 18.9753 18.5185Z" fill="#463434"/>
<path d="M19.0112 18.5186C19.0112 18.5186 19.0112 18.5186 19.047 18.4836C19.047 18.4836 19.047 18.4836 19.0112 18.5186Z" fill="#463434"/>
<path d="M18.7428 18.361L18.6891 18.4135C18.6891 18.4135 18.6354 18.5536 18.6533 18.5186C18.6891 18.4661 18.707 18.431 18.7428 18.361Z" fill="#463434"/>
<path d="M18.5101 19.0438C18.5101 19.0438 18.5459 18.9387 18.5817 18.8512L18.4385 19.1488L18.5101 19.0438Z" fill="#463434"/>
<path d="M18.4027 19.0963C18.4027 19.0963 18.2595 19.3238 18.2953 19.3063C18.3311 19.2188 18.3848 19.1663 18.4027 19.0963Z" fill="#463434"/>
<path d="M18.2236 18.5536L18.4563 18.0634L18.2236 18.5536Z" fill="#463434"/>
<path d="M17.3647 19.5689C17.3468 19.6914 17.5079 19.2713 17.4721 19.4289C17.5257 19.3238 17.5079 19.3063 17.5615 19.2013C17.49 19.3238 17.5079 19.2363 17.3647 19.5689Z" fill="#463434"/>
<path d="M17.5435 19.2013C17.5435 19.2013 17.5614 19.1663 17.5793 19.1313C17.5793 19.1663 17.5435 19.1838 17.5435 19.2013Z" fill="#463434"/>
<path d="M14.6263 15.6302L14.6442 15.5076L14.6084 15.6827L14.6263 15.6302Z" fill="#463434"/>
<path d="M14.4653 15.9802L14.5727 15.6476L14.4653 15.9277C14.4653 15.9277 14.5011 15.8927 14.4653 15.9627V15.9802Z" fill="#463434"/>
<path d="M16.0759 19.4989L16.1117 19.4289C16.1117 19.4289 16.1475 19.3414 16.1296 19.3239L16.0759 19.4989Z" fill="#463434"/>
<path d="M15.9329 19.1663L16.0402 18.8862L15.9329 19.1663Z" fill="#463434"/>
<path d="M15.575 19.4464C15.575 19.4464 15.6107 19.3939 15.6107 19.4114C15.575 19.4639 15.7181 19.0788 15.575 19.4464Z" fill="#463434"/>
<path d="M29.9106 15.5952C29.9106 15.5952 29.8569 15.4026 29.8569 15.3676C29.8569 15.4201 29.9285 15.6477 29.9106 15.5952Z" fill="#463434"/>
<path d="M29.9464 16.1028L29.9285 16.0153L29.9822 16.2254L29.9464 16.1028Z" fill="#463434"/>
<path d="M29.8569 16.1204C29.9643 16.4705 29.8748 16.0504 29.9285 16.1729V16.2604L29.8748 15.9628C29.8748 16.0153 29.8927 16.2079 29.8569 16.1204Z" fill="#463434"/>
<path d="M29.5706 15.3501C29.6064 15.4901 29.5885 15.4726 29.5885 15.3851C29.5885 15.3851 29.5885 15.3676 29.5885 15.3501H29.5706Z" fill="#463434"/>
<path d="M29.5706 15.4551V15.3326C29.5706 15.3326 29.499 15.2276 29.499 15.175C29.499 15.2451 29.5348 15.3326 29.5706 15.4551Z" fill="#463434"/>
<path d="M29.6242 15.7177V15.6652C29.6242 15.6652 29.6063 15.6127 29.6242 15.7177Z" fill="#463434"/>
<path d="M29.6064 15.5427V15.6652C29.6064 15.6652 29.678 15.8403 29.6064 15.6302C29.6422 15.7352 29.6064 15.6302 29.6064 15.5602V15.5427Z" fill="#463434"/>
<path d="M29.6243 15.6127C29.6243 15.6127 29.678 15.7352 29.6959 15.8578C29.6959 15.8052 29.6243 15.5427 29.6243 15.6127Z" fill="#463434"/>
<path d="M29.9644 16.5055L30.0002 16.6105V16.488C30.0002 16.488 29.9286 16.4005 29.9644 16.5055Z" fill="#463434"/>
<path d="M29.4275 15.2976C29.4275 15.2976 29.4991 15.5077 29.517 15.5952V15.5077C29.517 15.5077 29.4633 15.4026 29.4275 15.2976Z" fill="#463434"/>
<path d="M29.5168 15.5952V15.7353C29.5168 15.7353 29.5347 15.6827 29.5168 15.5952Z" fill="#463434"/>
<path d="M29.7495 16.1204L29.6958 15.8403L29.7316 16.1204H29.7495Z" fill="#463434"/>
<path d="M29.3738 15.2976L29.3201 15.1226L29.3917 15.3851L29.3738 15.2976Z" fill="#463434"/>
<path d="M29.3379 15.3326C29.3021 15.1751 29.2663 15.0875 29.2305 15C29.2305 15.035 29.2484 15.1575 29.2842 15.2801C29.2842 15.2101 29.2842 15.2276 29.3379 15.3501V15.3326Z" fill="#463434"/>
<path d="M29.32 15.4376C29.32 15.4376 29.3021 15.3326 29.2842 15.2626C29.2842 15.2976 29.2842 15.3501 29.32 15.4376Z" fill="#463434"/>
<path d="M29.5169 15.7002C29.5169 15.7002 29.4632 15.5252 29.4453 15.4902L29.5169 15.7002Z" fill="#463434"/>
<path d="M29.6421 15.9453C29.66 16.0679 29.6779 16.2079 29.7495 16.3829C29.7137 16.2254 29.6779 16.1379 29.6421 15.9453Z" fill="#463434"/>
<path d="M29.5885 15.9628L29.6242 16.0153C29.6242 16.0153 29.5885 15.8753 29.5706 15.8228V15.9803L29.5885 15.9628Z" fill="#463434"/>
<path d="M29.6063 16.0328L29.5884 15.9628V15.9453L29.6063 16.0328Z" fill="#463434"/>
<path d="M29.4094 15.6302C29.4273 15.7177 29.4094 15.7352 29.4094 15.7527C29.4273 15.7877 29.4452 15.8052 29.4631 15.8052C29.4452 15.7352 29.4094 15.6127 29.4094 15.6302Z" fill="#463434"/>
<path d="M29.3379 15.5427C29.3379 15.5427 29.3737 15.6302 29.3916 15.6652C29.3737 15.5952 29.3379 15.4902 29.3379 15.5427Z" fill="#463434"/>
<path d="M29.4453 15.6477C29.4453 15.6477 29.4632 15.7352 29.4811 15.7877C29.4811 15.7702 29.4811 15.7527 29.4811 15.7177C29.4811 15.7177 29.4811 15.6827 29.4632 15.6652L29.4453 15.6477Z" fill="#463434"/>
<path d="M29.7138 17.1707C29.6601 16.9781 29.6243 16.7856 29.7138 16.9956C29.678 16.8381 29.4812 16.1904 29.3738 15.8228C29.3917 15.9103 29.4275 15.9978 29.4454 16.1203C29.4812 16.2254 29.5528 16.3654 29.5885 16.558C29.5885 16.663 29.5528 16.488 29.517 16.3829C29.5885 16.628 29.5885 16.7505 29.6959 17.1182V16.9781C29.6959 16.9781 29.6959 17.1357 29.7317 17.1707H29.7138Z" fill="#463434"/>
<path d="M29.3916 15.8403V15.8052C29.3916 15.8052 29.3379 15.7002 29.2842 15.5427C29.2842 15.6477 29.32 15.7177 29.3379 15.7877H29.3737V15.8403H29.3916Z" fill="#463434"/>
<path d="M29.4096 15.8053C29.4633 16.0328 29.4812 16.1204 29.5527 16.3479C29.5527 16.3304 29.517 16.1554 29.4991 16.0678C29.4991 16.1379 29.4812 15.9453 29.4096 15.8228C29.4096 15.7878 29.4096 15.7703 29.4096 15.7527C29.4096 15.7352 29.3738 15.7002 29.3738 15.6652C29.3738 15.7002 29.3738 15.7002 29.3738 15.7002C29.3738 15.7352 29.3738 15.7527 29.3917 15.7878C29.3738 15.7527 29.3917 15.7352 29.3738 15.7002C29.3738 15.7002 29.3738 15.6827 29.3738 15.6652V15.7878C29.3738 15.7878 29.3917 15.8053 29.4096 15.7878V15.8053Z" fill="#463434"/>
<path d="M29.8212 16.7155C29.8212 16.7155 29.7854 16.593 29.8212 16.6105C29.8391 16.6805 29.8569 16.7155 29.8748 16.7856C29.8748 16.733 29.8391 16.628 29.8033 16.523V16.558C29.8033 16.558 29.678 16.2254 29.678 16.1904C29.7317 16.3829 29.7854 16.523 29.8391 16.7155H29.8212Z" fill="#463434"/>
<path d="M29.6421 16.3129V16.4355L29.7137 16.628L29.6779 16.523C29.6779 16.523 29.6779 16.418 29.6421 16.3304V16.3129Z" fill="#463434"/>
<path d="M29.3022 15.6827L29.2485 15.4376L29.3201 15.7702L29.3022 15.6827Z" fill="#463434"/>
<path d="M29.2842 15.7177L29.2126 15.5076L29.2484 15.6302L29.2842 15.7177Z" fill="#463434"/>
<path d="M28.1747 18.7112L28.1389 18.6061C28.1389 18.6061 28.1568 18.6937 28.1747 18.7112Z" fill="#463434"/>
<path d="M28.4788 15.9628C28.4073 15.7703 28.3178 15.4902 28.3894 15.7177L28.4609 15.9278C28.4609 15.9278 28.4609 15.9103 28.4967 15.9628H28.4788Z" fill="#463434"/>
<path d="M28.2819 17.4157C28.2819 17.4157 28.2819 17.4508 28.2998 17.4858C28.2819 17.4157 28.264 17.3457 28.2461 17.2757C28.2461 17.3282 28.264 17.3632 28.2819 17.4157Z" fill="#463434"/>
<path d="M28.5505 18.326L28.4968 18.186C28.4968 18.186 28.5326 18.2735 28.5505 18.326Z" fill="#463434"/>
<path d="M27.8882 19.0262L27.9419 19.2538C27.9419 19.2538 27.924 19.1313 27.8882 19.0262Z" fill="#463434"/>
<path d="M28.9621 15.8928L28.9084 15.7703C28.9621 15.8928 29.0158 16.0854 28.9621 15.8928Z" fill="#463434"/>
<path d="M27.4766 16.3654C27.4766 16.3654 27.4766 16.4529 27.5124 16.5055C27.5124 16.4705 27.5124 16.4179 27.4766 16.3654Z" fill="#463434"/>
<path d="M28.8726 15.7702C28.8726 15.7702 28.8726 15.8052 28.8905 15.8227C28.8905 15.7877 28.8905 15.7527 28.8905 15.7702C28.8547 15.6827 28.8368 15.6302 28.8547 15.7702H28.8726Z" fill="#463434"/>
<path d="M29.3916 16.5055C29.3916 16.5055 29.3916 16.558 29.4274 16.6105C29.4274 16.558 29.4095 16.523 29.3916 16.5055Z" fill="#463434"/>
<path d="M29.1588 15.7528C29.1588 15.7528 29.1409 15.7002 29.123 15.6827C29.123 15.6827 29.123 15.7178 29.1588 15.7528Z" fill="#463434"/>
<path d="M29.1052 15.6652C29.1052 15.6652 29.1052 15.6652 29.1231 15.6827V15.6477L29.1052 15.6652Z" fill="#463434"/>
<path d="M27.1724 18.396C27.1724 18.396 27.1724 18.396 27.1724 18.3785C27.1903 18.4661 27.1903 18.4486 27.1724 18.396Z" fill="#463434"/>
<path d="M28.9622 18.4486C28.8906 18.1685 28.9085 18.2035 28.9264 18.256L28.7295 17.6258L28.9443 18.4486H28.9622Z" fill="#463434"/>
<path d="M28.0135 18.7987L28.0851 18.9912C28.1566 19.3238 28.103 19.2188 28.2103 19.4814C28.0135 18.7987 28.264 19.3939 28.0672 18.7112L28.1209 18.8512V18.8862C28.2461 19.2013 27.9956 18.3785 28.0493 18.4661C28.0672 18.5186 28.103 18.6061 28.1209 18.6936V18.5186V18.6411V18.5711L28.1387 18.5886C28.1209 18.4836 28.0851 18.3085 28.0672 18.2385C28.103 18.326 28.0672 18.3085 28.103 18.3961L28.0672 18.221C28.1209 18.3961 28.1566 18.5711 28.1387 18.5536C28.3535 19.2363 28.103 18.3785 28.264 18.7637V18.8512C28.3893 19.2363 28.3714 19.0963 28.4609 19.3238C28.4251 19.2013 28.2461 18.7287 28.2103 18.5536C28.2282 18.6061 28.2461 18.6236 28.2103 18.4836C28.2819 18.7287 28.2819 18.6586 28.2819 18.6411L28.3714 18.9562C28.3714 18.8512 28.3177 18.6936 28.2819 18.5536C28.2998 18.5886 28.3893 18.8337 28.443 19.0438C28.4788 19.0963 28.3177 18.6411 28.3177 18.5711C28.3714 18.6936 28.3535 18.5536 28.3177 18.3435C28.3714 18.4486 28.3714 18.5361 28.4072 18.6411L28.3535 18.3785C28.3535 18.3785 28.3714 18.4661 28.3893 18.5011C28.3893 18.3961 28.2998 18.186 28.2819 18.081C28.1924 17.7308 28.4609 18.5886 28.3714 18.186C28.4072 18.2735 28.4251 18.3785 28.4609 18.5011C28.4072 18.221 28.4251 18.3085 28.3535 17.9409L28.443 18.151C28.3535 17.9059 28.2998 17.6258 28.2461 17.3807C28.2103 17.2582 28.1745 17.1707 28.1566 17.1182V16.9431C28.1566 16.9431 28.1745 17.1006 28.2103 17.2407C28.2103 17.2057 28.2103 17.1882 28.2103 17.1532C28.2461 17.2757 28.2998 17.4508 28.3535 17.6433C28.3356 17.5733 28.3177 17.5208 28.2819 17.4508C28.3356 17.6433 28.3893 17.8709 28.443 18.0634C28.443 18.0284 28.443 17.9934 28.443 17.9759C28.443 18.0284 28.4609 18.081 28.4788 18.116C28.4788 18.151 28.4788 18.081 28.4609 17.9934L28.5683 18.3435L28.5325 18.2035L28.6399 18.4136C28.5683 18.0459 28.4251 17.5033 28.4251 17.3457C28.4967 17.6083 28.5504 17.7834 28.6399 18.0985C28.5325 17.7659 28.6399 18.256 28.6041 18.186C28.622 18.221 28.6578 18.361 28.6757 18.4136L28.622 18.0985C28.6936 18.361 28.6936 18.291 28.7294 18.3961C28.5683 17.8884 28.6578 18.0459 28.6399 17.8884C28.6936 18.0634 28.7294 18.2385 28.7115 18.2035C28.8367 18.5711 28.5683 17.6083 28.6757 17.9234C28.6757 17.9234 28.6757 17.9059 28.6757 17.9934C28.6399 17.8359 28.7115 17.9584 28.7472 18.0985C28.7472 18.0985 28.8367 18.081 28.7294 17.6433C28.7294 17.6958 28.8725 18.1685 28.8904 18.256L28.5325 16.7856C28.6399 17.1532 28.9083 18.0284 28.9441 18.2385C28.962 18.291 28.9978 18.3435 28.9799 18.221C28.962 18.1685 28.8188 17.6958 28.8188 17.6608C28.962 18.0634 28.8904 17.8709 29.0157 18.221C28.9799 18.151 28.8367 17.5558 28.8367 17.5733C28.8546 17.6608 28.9978 18.151 29.0157 18.2035L28.8904 17.6258C28.9083 17.7308 29.0336 18.116 29.0873 18.2735C29.0515 18.1685 29.1231 18.2735 29.1052 18.221L29.0515 18.0985C29.0515 18.0985 28.8546 17.2932 28.8904 17.3107C28.9262 17.4333 29.0873 18.0284 29.1231 18.0985C29.0515 17.8009 28.7472 16.6805 28.7294 16.4529L28.783 16.6105L28.7472 16.4179C28.8546 16.8556 29.0873 17.8009 29.1589 18.151C29.2126 18.2735 29.2126 18.3435 29.2305 18.326C29.2842 18.4836 29.2842 18.5711 29.2842 18.5711L29.3557 18.6586C29.2484 18.326 29.2842 18.3085 29.2126 18.0284L29.2663 18.3961C29.1589 18.0634 29.0157 17.4157 29.0694 17.4683C29.1231 17.6083 29.2305 18.081 29.2663 18.186C29.2305 18.0634 29.2305 17.9584 29.2663 18.0284L29.3021 18.221C29.3558 18.3435 29.1947 17.7659 29.3021 18.081C29.3021 18.0985 29.4452 18.5186 29.3915 18.3085C29.2663 17.9234 28.9262 16.733 28.8546 16.4354C28.8546 16.4529 28.9978 16.8031 29.0694 16.9781C29.1768 17.2757 29.2663 17.7133 29.3379 17.9584C29.32 17.8709 29.2842 17.7484 29.2842 17.7133C29.32 17.7834 29.3558 17.9934 29.3736 17.9584C29.2842 17.6083 29.4094 17.9759 29.3021 17.6608C29.3021 17.5558 29.3379 17.7308 29.3557 17.7133C29.2842 17.4858 29.1589 16.9431 29.141 16.8556C29.1589 16.9431 29.1947 17.0481 29.2126 17.1006C29.2484 17.1182 29.32 17.2757 29.3557 17.2757C29.3736 17.3632 29.4273 17.4508 29.4631 17.6083C29.4631 17.5383 29.4273 17.4333 29.4273 17.4157C29.5347 17.7133 29.4273 17.4683 29.5347 17.8184C29.481 17.6258 29.481 17.5383 29.4631 17.3982C29.3736 17.0831 29.4094 17.3457 29.4452 17.4683C29.32 17.0481 29.2126 16.593 29.1947 16.3829C29.1947 16.2779 29.2842 16.663 29.2663 16.593C29.3379 16.663 29.0873 15.8403 29.2126 16.1378C29.3021 16.4004 29.3736 16.6805 29.4273 16.8731C29.4273 16.9781 29.3379 16.7155 29.3379 16.7155L29.3915 16.8381C29.4094 16.9256 29.4094 16.9956 29.3915 16.9256C29.481 17.1707 29.481 16.9431 29.5884 17.1707C29.5705 17.0831 29.5526 16.9781 29.5168 16.8731V16.9081C29.4452 16.698 29.4452 16.593 29.4094 16.5055C29.3736 16.3479 29.3379 16.1028 29.3915 16.2254L29.481 16.5405C29.4631 16.4529 29.4094 16.3654 29.4273 16.4529C29.3915 16.3129 29.5884 16.8556 29.481 16.4529L29.4094 16.2429C29.3736 16.0853 29.3021 15.7527 29.3557 15.8403C29.2663 15.5427 29.3558 15.8753 29.2484 15.5252C29.3915 15.9628 29.1947 15.5252 29.3379 15.9803C29.2126 15.5602 29.2663 15.8052 29.141 15.4551C29.1768 15.5602 29.1947 15.6477 29.1768 15.5952C29.1768 15.6302 29.1768 15.6652 29.1947 15.6827C29.1947 15.7177 29.2305 15.7877 29.2484 15.8403C29.3021 16.0853 29.2842 16.0853 29.3021 16.2079C29.2842 16.1554 29.2663 16.0853 29.2305 15.9803L29.2663 16.1729C29.1947 15.9453 29.141 15.8052 29.1231 15.6652H29.1052C29.0515 15.5427 29.0336 15.4901 29.0336 15.5952C29.0157 15.5427 29.0873 15.8578 29.0336 15.6652V15.8227V15.7702C28.9978 15.7527 29.0694 16.1729 28.9262 15.7702C28.9262 15.8227 28.9262 15.9103 28.9083 15.8403L28.8546 15.6477C28.8546 15.6477 28.7651 15.4551 28.8009 15.6652C28.6399 15.14 28.6936 15.5602 28.6578 15.4726L28.7294 15.7352C28.7294 15.7352 28.7294 15.8052 28.7294 15.9103L28.8009 16.1378C28.8367 16.3304 28.7115 15.9978 28.6936 16.0153C28.6757 15.9278 28.6936 15.9453 28.6936 16.0153C28.5146 15.5077 28.7294 16.4004 28.5862 16.0503C28.5862 16.1378 28.5862 16.1028 28.5683 16.0503C28.5683 16.0153 28.5325 15.9628 28.5146 15.9278C28.5325 15.9803 28.5504 16.0328 28.5504 16.0503C28.5504 16.0503 28.5504 16.0853 28.5504 16.1378L28.4788 15.8928C28.443 15.8052 28.4967 16.0153 28.5683 16.1904C28.5683 16.2254 28.5683 16.2779 28.6041 16.3479C28.4788 15.9628 28.6041 16.488 28.4967 16.0678C28.5504 16.2779 28.4967 16.2254 28.622 16.663C28.622 16.6105 28.6041 16.5755 28.6041 16.5755C28.5862 16.523 28.5504 16.488 28.5862 16.6105L28.4967 16.2954L28.5862 16.7155C28.5146 16.523 28.4788 16.4179 28.4251 16.1729C28.4967 16.5405 28.4251 16.3129 28.5146 16.6805L28.4609 16.488C28.4609 16.488 28.5146 16.768 28.4609 16.6105C28.3356 16.2429 28.3356 16.593 28.1924 16.2429C28.3714 16.8381 28.0851 15.9803 28.2282 16.4354C28.1924 16.2954 28.1566 16.2254 28.1209 16.1028C28.1209 16.2429 28.0135 15.8928 28.1209 16.2779C28.0851 16.1378 28.0672 16.0678 28.0493 15.9978C28.0493 16.0328 28.0672 16.1203 28.0493 16.0328C28.0314 15.9453 28.0135 15.9103 28.0135 15.8578C27.9956 15.8928 28.1209 16.3129 28.2282 16.7155C28.1566 16.523 28.1566 16.558 28.2282 16.8206C28.1924 16.698 28.1387 16.558 28.1387 16.5055C28.1387 16.5055 28.0314 16.3304 28.1209 16.6455C28.103 16.558 28.103 16.628 28.1209 16.663C28.0851 16.663 28.0851 16.628 28.0672 16.663V16.7155C28.1924 17.1006 28.103 16.8031 28.0851 16.8556V16.8206C27.9598 16.558 28.0851 16.9606 27.9598 16.6455L28.0314 16.8906C28.1745 17.4157 27.9061 16.593 27.9419 16.8031L27.9956 16.9431C28.0314 17.1182 27.7629 16.2429 27.7271 16.1904C27.7271 16.1378 27.7271 16.1203 27.7092 16.0853C27.5839 15.7877 27.7987 16.4004 27.7987 16.488C27.745 16.3129 27.6734 16.0503 27.6555 16.0153C27.6018 15.8753 27.7629 16.593 27.6555 16.2604C27.6913 16.3829 27.745 16.523 27.7629 16.628C27.7629 16.6805 27.566 16.1378 27.6734 16.558C27.6734 16.523 27.6555 16.488 27.6376 16.4529C27.6376 16.558 27.6376 16.6455 27.7092 16.8731C27.4587 16.0328 27.745 17.3107 27.5302 16.523L27.4945 16.5755V16.488C27.4945 16.488 27.4766 16.628 27.5123 16.8206C27.4945 16.768 27.4766 16.698 27.4587 16.663C27.3692 16.523 27.3871 16.558 27.4587 16.9431L27.3871 16.698C27.4229 16.8381 27.226 16.3129 27.2618 16.628C27.2618 16.593 27.2439 16.558 27.226 16.523C27.2618 16.8206 26.9217 15.8578 27.1723 16.768L27.2081 16.9956C27.2081 16.9956 27.3155 17.3982 27.3692 17.5383C27.3692 17.5908 27.2618 17.2757 27.2618 17.2232V17.2757C27.1544 16.8031 27.1902 17.1182 27.1007 16.8031C27.0291 16.8381 26.886 16.6105 26.8144 16.593L26.9217 16.9606H26.886C26.8502 16.8556 26.7965 16.663 26.8144 16.663C26.7428 16.4529 26.8323 16.8381 26.8681 16.9256C26.7965 16.7856 26.7607 16.488 26.7428 16.488V16.523V16.558C26.7786 16.7155 26.8144 16.8731 26.7965 16.8556C26.7607 16.7856 26.7249 16.628 26.707 16.6105C26.707 16.5755 26.707 16.593 26.707 16.6105H26.6712L26.7607 16.8731C26.7965 17.0131 26.7249 16.8731 26.8323 17.1882C26.6712 16.6805 26.6712 17.0306 26.6175 16.8731C26.6533 17.0831 26.6354 17.1006 26.6175 17.0656C26.6354 17.1182 26.7428 17.4508 26.707 17.4157C26.528 16.733 26.5817 17.1357 26.4385 16.6455C26.5459 16.9606 26.4027 16.733 26.5638 17.1882C26.528 17.1357 26.4922 16.9431 26.4385 16.7856C26.4743 17.0656 26.3132 16.6455 26.2775 16.733C26.2953 16.8206 26.349 16.9606 26.3848 17.0831L26.2238 16.6455C26.2238 16.6455 26.3669 17.1532 26.2596 16.8556C26.2774 16.9256 26.3132 17.0481 26.3132 17.0656C26.0985 16.663 26.2238 17.4683 25.9016 16.6805C25.9553 16.8556 25.9553 16.8731 25.9553 16.8731C25.9732 16.9081 26.0269 17.1006 26.0627 17.2057L25.9195 16.8731C26.009 17.2057 25.8837 16.9081 25.9732 17.2232V17.1707C26.0627 17.5558 26.2417 18.0109 26.3669 18.4836C26.2596 18.0459 26.5996 19.1138 26.4564 18.4836C26.4922 18.5886 26.4922 18.6411 26.528 18.7462C26.4743 18.5361 26.4743 18.4836 26.528 18.5711V18.6236C26.528 18.6236 26.6533 18.7637 26.7428 18.8862L26.6712 18.6411C26.6712 18.6411 26.7249 18.7462 26.7428 18.7987C26.6533 18.4311 26.707 18.7987 26.5996 18.3785C26.7607 18.8687 26.6891 18.3785 26.8502 18.9212C26.8681 18.9212 26.7607 18.6411 26.7786 18.6411L26.8323 18.7812L26.7786 18.5886C26.7786 18.5886 26.8681 18.7987 26.9038 18.9212C26.9038 18.9212 26.9038 18.9562 26.9038 18.9737C26.9754 19.1488 26.9217 18.9037 26.9575 18.9737L26.9217 18.8862C26.9217 18.7287 27.047 18.9212 27.0112 18.5886L26.9754 18.4836C26.9575 18.256 27.047 18.6061 27.047 18.4836V18.5186C27.0291 18.3961 27.0291 18.3435 27.047 18.361C27.0828 18.5011 27.1365 18.6061 27.1723 18.7637C27.1544 18.5361 27.1365 18.5886 27.047 18.151L27.1007 18.3435C27.0649 18.1685 27.0291 18.081 27.047 18.0284C27.0828 18.186 27.1365 18.3085 27.1902 18.5361C27.3513 18.9387 27.1365 18.0985 27.3334 18.6936C27.2081 18.1685 27.2081 18.4136 27.1902 18.3085C27.1365 18.1335 27.1007 17.9234 27.1186 17.9584C27.1186 17.9584 27.3334 18.6236 27.3692 18.5886V18.6236C27.4229 18.7462 27.3513 18.4311 27.4229 18.6411C27.3334 18.326 27.4408 18.6411 27.3334 18.256V18.361C27.3334 18.256 27.1902 17.7834 27.2976 17.9934C27.3155 18.081 27.3334 18.186 27.3513 18.2385C27.3871 18.361 27.3513 18.151 27.3871 18.2735C27.4945 18.6761 27.3871 18.3785 27.4408 18.6761C27.4945 18.8512 27.3871 18.3785 27.5123 18.8162C27.3692 18.256 27.566 18.8687 27.4587 18.4486L27.5302 18.6936C27.5302 18.6936 27.4945 18.5361 27.5123 18.5361L27.5839 18.8512C27.5302 18.5886 27.6913 19.0788 27.6555 18.9212C27.6197 18.9387 27.566 18.6411 27.4945 18.4661C27.4408 18.1335 27.7092 19.0788 27.7271 18.9562C27.7271 18.9912 27.6555 18.8162 27.6376 18.7112C27.6555 18.7637 27.7092 18.8512 27.745 18.9737C27.7629 18.9212 27.6734 18.7287 27.6376 18.5711C27.7271 18.8687 27.6376 18.4486 27.6018 18.3435L27.6734 18.5886C27.7629 18.7287 27.5302 18.081 27.6197 18.256L27.7092 18.6061V18.5186L27.7808 18.7987C27.745 18.5886 27.7629 18.6411 27.7987 18.7112C27.745 18.5361 27.6734 18.2735 27.6913 18.256C27.745 18.3961 27.745 18.4836 27.7629 18.4486C27.7987 18.6061 27.8524 18.7987 27.7629 18.5711C27.7808 18.6586 27.7987 18.7287 27.8166 18.7987C27.8703 18.9562 27.8524 18.8337 27.8703 18.8162C27.8703 18.8162 27.8703 18.7987 27.8524 18.7637L27.7987 18.4136C27.8345 18.5011 27.8524 18.5711 27.8703 18.6586C27.8703 18.6236 27.8345 18.5186 27.8524 18.5011C27.9061 18.6936 27.9598 18.9037 27.9777 19.0087L27.9419 18.7812C27.9419 18.7812 28.0314 19.0087 28.0493 19.0963C28.103 19.2013 27.9777 18.6936 28.0493 18.8512C28.0493 18.8162 28.0493 18.7812 28.0314 18.7462C28.0672 18.7812 28.1566 19.0263 28.103 18.7462L28.2282 19.0963C28.2282 19.0963 28.0851 18.6586 28.0851 18.5186C28.0851 18.3961 28.1745 18.8162 28.2103 18.9212C28.1745 18.7462 28.0851 18.361 28.2103 18.6586C28.2103 18.7287 28.2103 18.6761 28.2103 18.7112L28.0135 18.7987ZM28.2282 18.5711C28.2282 18.5711 28.264 18.7812 28.2282 18.6411C28.1566 18.361 28.1924 18.5011 28.2282 18.5711ZM28.4609 17.8709C28.4609 17.8709 28.4609 17.9059 28.4251 17.8184C28.4251 17.8009 28.4251 17.8184 28.4609 17.8709ZM29.0873 15.8578C29.0515 15.7702 29.0694 15.8052 29.0873 15.8578V15.8578ZM29.141 15.9628C29.141 15.9628 29.141 15.8928 29.1052 15.8578C29.1052 15.9278 29.1052 15.9278 29.1052 15.9103C29.1231 15.9803 29.141 16.0153 29.141 15.9628ZM26.6175 16.7505V16.8206C26.6175 16.8206 26.6175 16.8206 26.6175 16.7505Z" fill="#463434"/>
<path d="M28.5146 18.221C28.5146 18.221 28.4967 18.1334 28.4788 18.0809C28.4788 18.1159 28.4967 18.1685 28.5146 18.221Z" fill="#463434"/>
<path d="M29.3738 18.1335C29.3738 18.1335 29.338 18.0634 29.3201 18.0109C29.3201 18.0634 29.3559 18.116 29.3738 18.1335Z" fill="#463434"/>
<path d="M29.1589 15.5251V15.5952C29.1589 15.5952 29.1768 15.6302 29.1947 15.6652C29.1947 15.6127 29.1589 15.5251 29.1589 15.5251Z" fill="#463434"/>
<path d="M29.7316 16.9956C29.7316 16.9956 29.7316 16.9956 29.7316 16.9606L29.6958 16.8556C29.6958 16.8556 29.6958 16.9606 29.7316 16.9956Z" fill="#463434"/>
<path d="M29.4096 16.3304C29.4633 16.5405 29.4633 16.4704 29.4633 16.4179C29.3917 16.1378 29.3917 16.2254 29.4096 16.3304Z" fill="#463434"/>
<path d="M29.4632 16.4179C29.4274 16.2954 29.4632 16.4004 29.4632 16.4179V16.4179Z" fill="#463434"/>
<path d="M29.141 15.8227C29.141 15.8227 29.0694 15.5602 29.0873 15.6477C29.0157 15.3851 29.141 15.9803 29.141 15.8227Z" fill="#463434"/>
<path d="M29.6065 16.9956L29.5349 16.7505L29.5886 16.9606L29.6065 16.9956Z" fill="#463434"/>
<path d="M29.4631 16.838L29.4989 16.9081C29.4989 16.9081 29.4989 16.838 29.481 16.8205C29.481 16.8205 29.4452 16.768 29.481 16.838H29.4631Z" fill="#463434"/>
<path d="M29.6064 17.0831L29.5885 17.0306L29.5706 17.0131L29.6064 17.0831Z" fill="#463434"/>
<path d="M29.2664 16.8381V16.9081C29.2664 16.9081 29.32 17.0481 29.3022 17.0131C29.3022 16.9431 29.3022 16.9081 29.2664 16.8381Z" fill="#463434"/>
<path d="M29.5347 17.5208C29.5347 17.5208 29.4989 17.4158 29.4631 17.3282L29.5526 17.6433V17.5208H29.5347Z" fill="#463434"/>
<path d="M29.499 17.6083C29.5169 17.6959 29.5527 17.8709 29.5527 17.8359C29.5348 17.7484 29.5348 17.6784 29.499 17.6083Z" fill="#463434"/>
<path d="M29.1053 17.2932V17.2757L28.9622 16.7681L29.1053 17.2932Z" fill="#463434"/>
<path d="M29.2125 18.5886C29.2662 18.7111 29.123 18.2735 29.1946 18.4135C29.1588 18.291 29.1409 18.291 29.123 18.186C29.1409 18.326 29.123 18.256 29.2304 18.5886H29.2125Z" fill="#463434"/>
<path d="M25.6869 16.7505L25.6511 16.6455L25.7048 16.8031L25.6869 16.7505Z" fill="#463434"/>
<path d="M25.7765 17.1356L25.687 16.803L25.7586 17.1006C25.7586 17.1006 25.7586 17.0481 25.7765 17.1356Z" fill="#463434"/>
<path d="M28.461 19.2188V19.1313C28.461 19.1313 28.4073 19.0438 28.3894 19.0262L28.461 19.2013V19.2188Z" fill="#463434"/>
<path d="M28.1925 19.0262L28.2104 19.0437L28.103 18.7462L28.1925 19.0262Z" fill="#463434"/>
<path d="M28.1389 19.4639V19.4113C28.1389 19.4639 28.0137 19.0963 28.1389 19.4639Z" fill="#463434"/>
<path d="M15.575 23.2101L18.0805 22.4048C18.7785 22.1773 19.5123 22.6324 19.6018 23.3501L19.8703 25.3282L15.575 23.2101Z" fill="#301C1C"/>
<path d="M24.4341 22.93L27.3692 21.9847C27.8345 21.8271 28.3356 22.1422 28.4072 22.6324L28.7294 25.0481L24.4341 22.93Z" fill="#301C1C"/>
<path d="M27.4407 31H18.3132C17.4541 31 16.7561 30.3173 16.7561 29.477C16.7561 28.6368 17.4541 27.954 18.3132 27.954H27.4407C28.2997 27.954 28.9977 28.6368 28.9977 29.477C28.9977 30.3173 28.2997 31 27.4407 31ZM18.3132 28.4617C17.7404 28.4617 17.293 28.9168 17.293 29.4595C17.293 30.0022 17.7583 30.4573 18.3132 30.4573H27.4407C28.0134 30.4573 28.4608 30.0022 28.4608 29.4595C28.4608 28.9168 27.9955 28.4617 27.4407 28.4617H18.3132Z" fill="#301C1C"/>
<path d="M20.0135 28.4442H19.4766V30.5274H20.0135V28.4442Z" fill="#301C1C"/>
<path d="M23.5928 28.4442H23.0559V30.5274H23.5928V28.4442Z" fill="#301C1C"/>
<path d="M27.1722 28.4442H26.6353V30.5274H27.1722V28.4442Z" fill="#301C1C"/>
<path d="M23.0943 25.3964L22.6453 25.6844L23.4107 26.8263L23.8597 26.5383L23.0943 25.3964Z" fill="#301C1C"/>
</g>
<defs>
<filter id="filter0_d_99_51" x="10" y="15" width="24" height="24" filterUnits="userSpaceOnUse" color-interpolation-filters="sRGB">
<feFlood flood-opacity="0" result="BackgroundImageFix"/>
<feColorMatrix in="SourceAlpha" type="matrix" values="0 0 0 0 0 0 0 0 0 0 0 0 0 0 0 0 0 0 127 0" result="hardAlpha"/>
<feOffset dy="4"/>
<feGaussianBlur stdDeviation="2"/>
<feComposite in2="hardAlpha" operator="out"/>
<feColorMatrix type="matrix" values="0 0 0 0 0 0 0 0 0 0 0 0 0 0 0 0 0 0 0.25 0"/>
<feBlend mode="normal" in2="BackgroundImageFix" result="effect1_dropShadow_99_51"/>
<feBlend mode="normal" in="SourceGraphic" in2="effect1_dropShadow_99_51" result="shape"/>
</filter>
<clipPath id="clip0_99_51">
<rect width="39" height="42" fill="white"/>
</clipPath>
<clipPath id="clip1_99_51">
<rect width="16" height="16" fill="white" transform="translate(14 15)"/>
</clipPath>
</defs>
</svg>
