<svg width="32" height="29" viewBox="0 0 32 29" fill="none" xmlns="http://www.w3.org/2000/svg">
<g filter="url(#filter0_f_99_47)">
<rect x="1" y="1" width="30" height="27" rx="13.5" fill="#62D0F2"/>
</g>
<g clip-path="url(#clip0_99_47)">
<path d="M10.59 16.08C11.7332 16.08 12.66 15.1532 12.66 14.01C12.66 12.8668 11.7332 11.94 10.59 11.94C9.44679 11.94 8.52002 12.8668 8.52002 14.01C8.52002 15.1532 9.44679 16.08 10.59 16.08Z" fill="black"/>
<path d="M20.27 16.08C21.4132 16.08 22.34 15.1532 22.34 14.01C22.34 12.8668 21.4132 11.94 20.27 11.94C19.1267 11.94 18.2 12.8668 18.2 14.01C18.2 15.1532 19.1267 16.08 20.27 16.08Z" fill="black"/>
<path d="M13.42 20.31C13.42 20.31 15.34 21.91 17.13 20.31" stroke="#301C1C" stroke-width="1.5" stroke-linecap="round" stroke-linejoin="round"/>
<path d="M19.87 8.90998C19.87 8.90998 21.22 8.39998 22.34 9.22998" stroke="#301C1C" stroke-width="1.5" stroke-linecap="round" stroke-linejoin="round"/>
<path d="M8.75 9.23C8.75 9.23 10.73 8.78 11.56 9.61" stroke="#301C1C" stroke-width="1.5" stroke-linecap="round" stroke-linejoin="round"/>
</g>
<defs>
<filter id="filter0_f_99_47" x="0" y="0" width="32" height="29" filterUnits="userSpaceOnUse" color-interpolation-filters="sRGB">
<feFlood flood-opacity="0" result="BackgroundImageFix"/>
<feBlend mode="normal" in="SourceGraphic" in2="BackgroundImageFix" result="shape"/>
<feGaussianBlur stdDeviation="0.5" result="effect1_foregroundBlur_99_47"/>
</filter>
<clipPath id="clip0_99_47">
<rect width="15.09" height="13.77" fill="white" transform="translate(8 8)"/>
</clipPath>
</defs>
</svg>
